<?xml version="1.0" encoding="utf-8"?>
<!-- Generator: Adobe Illustrator 26.1.0, SVG Export Plug-In . SVG Version: 6.00 Build 0)  -->
<svg version="1.1" id="Слой_1" xmlns="http://www.w3.org/2000/svg" xmlns:xlink="http://www.w3.org/1999/xlink" x="0px" y="0px"
	 viewBox="0 0 1024 1024" style="enable-background:new 0 0 1024 1024;" xml:space="preserve">
<style type="text/css">
	.st0{fill:#999999;}
	.st1{font-family:'MyriadPro-Regular';}
	.st2{font-size:53.5205px;}
	.st3{font-size:46.4663px;}
	.st4{fill:none;stroke:#000000;stroke-width:4;stroke-miterlimit:10;}
</style>
<rect x="179" y="8" class="st0" width="667" height="140"/>
<text transform="matrix(1.0998 0 0 1 225.7012 70.9395)" class="st1 st2">Пользователь</text>
<text transform="matrix(1 0 0 1 230.1055 121.8926)" class="st1 st3">0123456789</text>
<g>
	<g>
		<g>
			<path d="M785.9,92.6l-7.9-7.8c-1.6-1.5-4.2-1.5-5.8,0.1l-4,3.9c-0.3-0.1-0.5-0.3-0.8-0.4c-2.5-1.4-5.9-3.2-9.6-6.8
				c-3.6-3.6-5.5-6.9-6.9-9.4c-0.1-0.3-0.3-0.5-0.4-0.8l2.7-2.6l1.3-1.3c1.6-1.6,1.7-4.2,0.1-5.7l-7.9-7.8c-1.6-1.5-4.2-1.5-5.8,0.1
				l-2.2,2.2l0.1,0.1c-0.7,0.9-1.4,2-1.8,3.2c-0.4,1.1-0.7,2.2-0.8,3.2c-1,8.5,2.9,16.2,13.6,26.8c14.8,14.5,26.7,13.4,27.2,13.4
				c1.1-0.1,2.2-0.4,3.3-0.8c1.2-0.5,2.3-1.1,3.2-1.8l0,0l2.3-2.2C787.4,96.7,787.5,94.1,785.9,92.6z M784.1,96.6l-1,1l-0.4,0.4
				c-0.6,0.6-1.7,1.4-3.3,2c-0.9,0.3-1.8,0.6-2.7,0.7c-0.1,0-11.3,1-25.2-12.7c-11.8-11.6-13.7-18.3-12.9-24.8
				c0.1-0.9,0.3-1.7,0.7-2.6c0.6-1.6,1.5-2.6,2.1-3.2l1.4-1.4c0.7-0.7,1.7-0.7,2.3-0.1l7.9,7.7c0.6,0.6,0.6,1.6-0.1,2.3l-5.3,5.2
				l0.5,0.8c0.3,0.5,0.6,1,0.9,1.5c1.5,2.6,3.5,6.2,7.3,10c3.9,3.8,7.5,5.8,10.1,7.2c0.6,0.3,1.1,0.6,1.6,0.9l0.8,0.5l5.3-5.2
				c0.7-0.6,1.7-0.7,2.3-0.1l7.9,7.7C784.8,94.9,784.7,95.9,784.1,96.6z"/>
		</g>
	</g>
	<path class="st4" d="M777.4,120h-30.7c-14.7,0-26.6-11.9-26.6-26.6V62.6c0-14.7,11.9-26.6,26.6-26.6h30.7
		c14.7,0,26.6,11.9,26.6,26.6v30.7C804,108.1,792.1,120,777.4,120z"/>
</g>
<rect x="179" y="151" class="st0" width="667" height="140"/>
<text transform="matrix(1.0998 0 0 1 225.7012 213.9395)" class="st1 st2">Пользователь</text>
<text transform="matrix(1 0 0 1 230.1055 264.8926)" class="st1 st3">0123456789</text>
<g>
	<g>
		<g>
			<path d="M785.9,235.6l-7.9-7.8c-1.6-1.5-4.2-1.5-5.8,0.1l-4,3.9c-0.3-0.1-0.5-0.3-0.8-0.4c-2.5-1.4-5.9-3.2-9.6-6.8
				c-3.6-3.6-5.5-6.9-6.9-9.4c-0.1-0.3-0.3-0.5-0.4-0.8l2.7-2.6l1.3-1.3c1.6-1.6,1.7-4.2,0.1-5.7l-7.9-7.8c-1.6-1.5-4.2-1.5-5.8,0.1
				l-2.2,2.2l0.1,0.1c-0.7,0.9-1.4,2-1.8,3.2c-0.4,1.1-0.7,2.2-0.8,3.2c-1,8.5,2.9,16.2,13.6,26.8c14.8,14.5,26.7,13.4,27.2,13.4
				c1.1-0.1,2.2-0.4,3.3-0.8c1.2-0.5,2.3-1.1,3.2-1.8l0,0l2.3-2.2C787.4,239.7,787.5,237.1,785.9,235.6z M784.1,239.6l-1,1l-0.4,0.4
				c-0.6,0.6-1.7,1.4-3.3,2c-0.9,0.3-1.8,0.6-2.7,0.7c-0.1,0-11.3,1-25.2-12.7c-11.8-11.6-13.7-18.3-12.9-24.8
				c0.1-0.9,0.3-1.7,0.7-2.6c0.6-1.6,1.5-2.6,2.1-3.2l1.4-1.4c0.7-0.7,1.7-0.7,2.3-0.1l7.9,7.7c0.6,0.6,0.6,1.6-0.1,2.3l-5.3,5.2
				l0.5,0.8c0.3,0.5,0.6,1,0.9,1.5c1.5,2.6,3.5,6.2,7.3,10c3.9,3.8,7.5,5.8,10.1,7.2c0.6,0.3,1.1,0.6,1.6,0.9l0.8,0.5l5.3-5.2
				c0.7-0.6,1.7-0.7,2.3-0.1l7.9,7.7C784.8,237.9,784.7,238.9,784.1,239.6z"/>
		</g>
	</g>
	<path class="st4" d="M777.4,263h-30.7c-14.7,0-26.6-11.9-26.6-26.6v-30.7c0-14.7,11.9-26.6,26.6-26.6h30.7
		c14.7,0,26.6,11.9,26.6,26.6v30.7C804,251.1,792.1,263,777.4,263z"/>
</g>
<rect x="179" y="294" class="st0" width="667" height="140"/>
<text transform="matrix(1.0998 0 0 1 225.7012 356.9395)" class="st1 st2">Пользователь</text>
<text transform="matrix(1 0 0 1 230.1055 407.8926)" class="st1 st3">0123456789</text>
<g>
	<g>
		<g>
			<path d="M785.9,378.6l-7.9-7.8c-1.6-1.5-4.2-1.5-5.8,0.1l-4,3.9c-0.3-0.1-0.5-0.3-0.8-0.4c-2.5-1.4-5.9-3.2-9.6-6.8
				c-3.6-3.6-5.5-6.9-6.9-9.4c-0.1-0.3-0.3-0.5-0.4-0.8l2.7-2.6l1.3-1.3c1.6-1.6,1.7-4.2,0.1-5.7l-7.9-7.8c-1.6-1.5-4.2-1.5-5.8,0.1
				l-2.2,2.2l0.1,0.1c-0.7,0.9-1.4,2-1.8,3.2c-0.4,1.1-0.7,2.2-0.8,3.2c-1,8.5,2.9,16.2,13.6,26.8c14.8,14.5,26.7,13.4,27.2,13.4
				c1.1-0.1,2.2-0.4,3.3-0.8c1.2-0.5,2.3-1.1,3.2-1.8l0,0l2.3-2.2C787.4,382.7,787.5,380.1,785.9,378.6z M784.1,382.6l-1,1l-0.4,0.4
				c-0.6,0.6-1.7,1.4-3.3,2c-0.9,0.3-1.8,0.6-2.7,0.7c-0.1,0-11.3,1-25.2-12.7c-11.8-11.6-13.7-18.3-12.9-24.8
				c0.1-0.9,0.3-1.7,0.7-2.6c0.6-1.6,1.5-2.6,2.1-3.2l1.4-1.4c0.7-0.7,1.7-0.7,2.3-0.1l7.9,7.7c0.6,0.6,0.6,1.6-0.1,2.3l-5.3,5.2
				l0.5,0.8c0.3,0.5,0.6,1,0.9,1.5c1.5,2.6,3.5,6.2,7.3,10c3.9,3.8,7.5,5.8,10.1,7.2c0.6,0.3,1.1,0.6,1.6,0.9l0.8,0.5l5.3-5.2
				c0.7-0.6,1.7-0.7,2.3-0.1l7.9,7.7C784.8,380.9,784.7,381.9,784.1,382.6z"/>
		</g>
	</g>
	<path class="st4" d="M777.4,406h-30.7c-14.7,0-26.6-11.9-26.6-26.6v-30.7c0-14.7,11.9-26.6,26.6-26.6h30.7
		c14.7,0,26.6,11.9,26.6,26.6v30.7C804,394.1,792.1,406,777.4,406z"/>
</g>
<rect x="179" y="437" class="st0" width="667" height="140"/>
<text transform="matrix(1.0998 0 0 1 225.7012 499.9395)" class="st1 st2">Пользователь</text>
<text transform="matrix(1 0 0 1 230.1055 550.8926)" class="st1 st3">0123456789</text>
<g>
	<g>
		<g>
			<path d="M785.9,521.6l-7.9-7.8c-1.6-1.5-4.2-1.5-5.8,0.1l-4,3.9c-0.3-0.1-0.5-0.3-0.8-0.4c-2.5-1.4-5.9-3.2-9.6-6.8
				c-3.6-3.6-5.5-6.9-6.9-9.4c-0.1-0.3-0.3-0.5-0.4-0.8l2.7-2.6l1.3-1.3c1.6-1.6,1.7-4.2,0.1-5.7l-7.9-7.8c-1.6-1.5-4.2-1.5-5.8,0.1
				l-2.2,2.2l0.1,0.1c-0.7,0.9-1.4,2-1.8,3.2c-0.4,1.1-0.7,2.2-0.8,3.2c-1,8.5,2.9,16.2,13.6,26.8c14.8,14.5,26.7,13.4,27.2,13.4
				c1.1-0.1,2.2-0.4,3.3-0.8c1.2-0.5,2.3-1.1,3.2-1.8l0,0l2.3-2.2C787.4,525.7,787.5,523.1,785.9,521.6z M784.1,525.6l-1,1l-0.4,0.4
				c-0.6,0.6-1.7,1.4-3.3,2c-0.9,0.3-1.8,0.6-2.7,0.7c-0.1,0-11.3,1-25.2-12.7c-11.8-11.6-13.7-18.3-12.9-24.8
				c0.1-0.9,0.3-1.7,0.7-2.6c0.6-1.6,1.5-2.6,2.1-3.2l1.4-1.4c0.7-0.7,1.7-0.7,2.3-0.1l7.9,7.7c0.6,0.6,0.6,1.6-0.1,2.3l-5.3,5.2
				l0.5,0.8c0.3,0.5,0.6,1,0.9,1.5c1.5,2.6,3.5,6.2,7.3,10c3.9,3.8,7.5,5.8,10.1,7.2c0.6,0.3,1.1,0.6,1.6,0.9l0.8,0.5l5.3-5.2
				c0.7-0.6,1.7-0.7,2.3-0.1l7.9,7.7C784.8,523.9,784.7,524.9,784.1,525.6z"/>
		</g>
	</g>
	<path class="st4" d="M777.4,549h-30.7c-14.7,0-26.6-11.9-26.6-26.6v-30.7c0-14.7,11.9-26.6,26.6-26.6h30.7
		c14.7,0,26.6,11.9,26.6,26.6v30.7C804,537.1,792.1,549,777.4,549z"/>
</g>
<rect x="179" y="580" class="st0" width="667" height="140"/>
<text transform="matrix(1.0998 0 0 1 225.7012 642.9395)" class="st1 st2">Пользователь</text>
<text transform="matrix(1 0 0 1 230.1055 693.8926)" class="st1 st3">0123456789</text>
<g>
	<g>
		<g>
			<path d="M785.9,664.6l-7.9-7.8c-1.6-1.5-4.2-1.5-5.8,0.1l-4,3.9c-0.3-0.1-0.5-0.3-0.8-0.4c-2.5-1.4-5.9-3.2-9.6-6.8
				c-3.6-3.6-5.5-6.9-6.9-9.4c-0.1-0.3-0.3-0.5-0.4-0.8l2.7-2.6l1.3-1.3c1.6-1.6,1.7-4.2,0.1-5.7l-7.9-7.8c-1.6-1.5-4.2-1.5-5.8,0.1
				l-2.2,2.2l0.1,0.1c-0.7,0.9-1.4,2-1.8,3.2c-0.4,1.1-0.7,2.2-0.8,3.2c-1,8.5,2.9,16.2,13.6,26.8c14.8,14.5,26.7,13.4,27.2,13.4
				c1.1-0.1,2.2-0.4,3.3-0.8c1.2-0.5,2.3-1.1,3.2-1.8l0,0l2.3-2.2C787.4,668.7,787.5,666.1,785.9,664.6z M784.1,668.6l-1,1l-0.4,0.4
				c-0.6,0.6-1.7,1.4-3.3,2c-0.9,0.3-1.8,0.6-2.7,0.7c-0.1,0-11.3,1-25.2-12.7c-11.8-11.6-13.7-18.3-12.9-24.8
				c0.1-0.9,0.3-1.7,0.7-2.6c0.6-1.6,1.5-2.6,2.1-3.2l1.4-1.4c0.7-0.7,1.7-0.7,2.3-0.1l7.9,7.7c0.6,0.6,0.6,1.6-0.1,2.3l-5.3,5.2
				l0.5,0.8c0.3,0.5,0.6,1,0.9,1.5c1.5,2.6,3.5,6.2,7.3,10c3.9,3.8,7.5,5.8,10.1,7.2c0.6,0.3,1.1,0.6,1.6,0.9l0.8,0.5l5.3-5.2
				c0.7-0.6,1.7-0.7,2.3-0.1l7.9,7.7C784.8,666.9,784.7,667.9,784.1,668.6z"/>
		</g>
	</g>
	<path class="st4" d="M777.4,692h-30.7c-14.7,0-26.6-11.9-26.6-26.6v-30.7c0-14.7,11.9-26.6,26.6-26.6h30.7
		c14.7,0,26.6,11.9,26.6,26.6v30.7C804,680.1,792.1,692,777.4,692z"/>
</g>
<rect x="179" y="723" class="st0" width="667" height="140"/>
<text transform="matrix(1.0998 0 0 1 225.7012 785.9395)" class="st1 st2">Пользователь</text>
<text transform="matrix(1 0 0 1 230.1055 836.8926)" class="st1 st3">0123456789</text>
<g>
	<g>
		<g>
			<path d="M785.9,807.6l-7.9-7.8c-1.6-1.5-4.2-1.5-5.8,0.1l-4,3.9c-0.3-0.1-0.5-0.3-0.8-0.4c-2.5-1.4-5.9-3.2-9.6-6.8
				c-3.6-3.6-5.5-6.9-6.9-9.4c-0.1-0.3-0.3-0.5-0.4-0.8l2.7-2.6l1.3-1.3c1.6-1.6,1.7-4.2,0.1-5.7l-7.9-7.8c-1.6-1.5-4.2-1.5-5.8,0.1
				l-2.2,2.2l0.1,0.1c-0.7,0.9-1.4,2-1.8,3.2c-0.4,1.1-0.7,2.2-0.8,3.2c-1,8.5,2.9,16.2,13.6,26.8c14.8,14.5,26.7,13.4,27.2,13.4
				c1.1-0.1,2.2-0.4,3.3-0.8c1.2-0.5,2.3-1.1,3.2-1.8l0,0l2.3-2.2C787.4,811.7,787.5,809.1,785.9,807.6z M784.1,811.6l-1,1l-0.4,0.4
				c-0.6,0.6-1.7,1.4-3.3,2c-0.9,0.3-1.8,0.6-2.7,0.7c-0.1,0-11.3,1-25.2-12.7c-11.8-11.6-13.7-18.3-12.9-24.8
				c0.1-0.9,0.3-1.7,0.7-2.6c0.6-1.6,1.5-2.6,2.1-3.2l1.4-1.4c0.7-0.7,1.7-0.7,2.3-0.1l7.9,7.7c0.6,0.6,0.6,1.6-0.1,2.3l-5.3,5.2
				l0.5,0.8c0.3,0.5,0.6,1,0.9,1.5c1.5,2.6,3.5,6.2,7.3,10c3.9,3.8,7.5,5.8,10.1,7.2c0.6,0.3,1.1,0.6,1.6,0.9l0.8,0.5l5.3-5.2
				c0.7-0.6,1.7-0.7,2.3-0.1l7.9,7.7C784.8,809.9,784.7,810.9,784.1,811.6z"/>
		</g>
	</g>
	<path class="st4" d="M777.4,835h-30.7c-14.7,0-26.6-11.9-26.6-26.6v-30.7c0-14.7,11.9-26.6,26.6-26.6h30.7
		c14.7,0,26.6,11.9,26.6,26.6v30.7C804,823.1,792.1,835,777.4,835z"/>
</g>
<rect x="179" y="866" class="st0" width="667" height="140"/>
<text transform="matrix(1.0998 0 0 1 225.7012 928.9395)" class="st1 st2">Пользователь</text>
<text transform="matrix(1 0 0 1 230.1055 979.8926)" class="st1 st3">0123456789</text>
<g>
	<g>
		<g>
			<path d="M785.9,950.6l-7.9-7.8c-1.6-1.5-4.2-1.5-5.8,0.1l-4,3.9c-0.3-0.1-0.5-0.3-0.8-0.4c-2.5-1.4-5.9-3.2-9.6-6.8
				c-3.6-3.6-5.5-6.9-6.9-9.4c-0.1-0.3-0.3-0.5-0.4-0.8l2.7-2.6l1.3-1.3c1.6-1.6,1.7-4.2,0.1-5.7l-7.9-7.8c-1.6-1.5-4.2-1.5-5.8,0.1
				l-2.2,2.2l0.1,0.1c-0.7,0.9-1.4,2-1.8,3.2c-0.4,1.1-0.7,2.2-0.8,3.2c-1,8.5,2.9,16.2,13.6,26.8c14.8,14.5,26.7,13.4,27.2,13.4
				c1.1-0.1,2.2-0.4,3.3-0.8c1.2-0.5,2.3-1.1,3.2-1.8l0,0l2.3-2.2C787.4,954.7,787.5,952.1,785.9,950.6z M784.1,954.6l-1,1l-0.4,0.4
				c-0.6,0.6-1.7,1.4-3.3,2c-0.9,0.3-1.8,0.6-2.7,0.7c-0.1,0-11.3,1-25.2-12.7c-11.8-11.6-13.7-18.3-12.9-24.8
				c0.1-0.9,0.3-1.7,0.7-2.6c0.6-1.6,1.5-2.6,2.1-3.2l1.4-1.4c0.7-0.7,1.7-0.7,2.3-0.1l7.9,7.7c0.6,0.6,0.6,1.6-0.1,2.3l-5.3,5.2
				l0.5,0.8c0.3,0.5,0.6,1,0.9,1.5c1.5,2.6,3.5,6.2,7.3,10c3.9,3.8,7.5,5.8,10.1,7.2c0.6,0.3,1.1,0.6,1.6,0.9l0.8,0.5l5.3-5.2
				c0.7-0.6,1.7-0.7,2.3-0.1l7.9,7.7C784.8,952.9,784.7,953.9,784.1,954.6z"/>
		</g>
	</g>
	<path class="st4" d="M777.4,978h-30.7c-14.7,0-26.6-11.9-26.6-26.6v-30.7c0-14.7,11.9-26.6,26.6-26.6h30.7
		c14.7,0,26.6,11.9,26.6,26.6v30.7C804,966.1,792.1,978,777.4,978z"/>
</g>
</svg>
