<?xml version="1.0" encoding="utf-8"?>
<!-- Generator: Adobe Illustrator 26.1.0, SVG Export Plug-In . SVG Version: 6.00 Build 0)  -->
<svg version="1.1" id="Слой_1" xmlns="http://www.w3.org/2000/svg" xmlns:xlink="http://www.w3.org/1999/xlink" x="0px" y="0px"
	 viewBox="0 0 1400 1000" style="enable-background:new 0 0 1400 1000;" xml:space="preserve">
<style type="text/css">
	.st0{fill:url(#SVGID_1_);}
	.st1{fill:url(#SVGID_00000019644965395048604050000008623026640359352509_);}
	.st2{fill:url(#SVGID_00000034793366279786632290000006560573937204689087_);}
	.st3{fill:url(#SVGID_00000171713860407961031560000018084763551860876161_);}
	.st4{fill:none;stroke:#000000;stroke-width:0.5;stroke-miterlimit:10;}
	.st5{fill:url(#SVGID_00000015322295316821423050000014138688437377063095_);}
	.st6{fill:#FFFFFF;}
	.st7{fill:#232323;}
</style>
<g>
	<linearGradient id="SVGID_1_" gradientUnits="userSpaceOnUse" x1="699.9255" y1="981.5309" x2="699.9255" y2="1000.8717">
		<stop  offset="0.3564" style="stop-color:#808185"/>
		<stop  offset="0.5045" style="stop-color:#78797D"/>
		<stop  offset="0.5443" style="stop-color:#7A7B7F"/>
		<stop  offset="1" style="stop-color:#0D0C11"/>
	</linearGradient>
	<path class="st0" d="M1401.9,981.5c0,0-43.2,18.9-108,18.9c-64.8,0-1123.1,0-1187.9,0S-2,981.5-2,981.5l701.9-5.4L1401.9,981.5z"/>
	
		<linearGradient id="SVGID_00000146482631711888310570000009453837415415967629_" gradientUnits="userSpaceOnUse" x1="699.9255" y1="187.7798" x2="699.9255" y2="971.2393">
		<stop  offset="1.594388e-04" style="stop-color:#363636"/>
		<stop  offset="9.187659e-03" style="stop-color:#3A3A3A"/>
		<stop  offset="9.819435e-02" style="stop-color:#404040"/>
		<stop  offset="0.1199" style="stop-color:#7D7D7D"/>
		<stop  offset="0.1519" style="stop-color:#404040"/>
		<stop  offset="0.2384" style="stop-color:#383838"/>
		<stop  offset="0.4063" style="stop-color:#404040"/>
		<stop  offset="0.4336" style="stop-color:#797979"/>
		<stop  offset="0.4621" style="stop-color:#404040"/>
		<stop  offset="0.5727" style="stop-color:#404040"/>
		<stop  offset="0.5998" style="stop-color:#626262"/>
		<stop  offset="0.6294" style="stop-color:#404040"/>
		<stop  offset="0.6916" style="stop-color:#404040"/>
		<stop  offset="0.7905" style="stop-color:#3D3D3D"/>
		<stop  offset="0.9015" style="stop-color:#404040"/>
		<stop  offset="0.9334" style="stop-color:#7E7E7E"/>
		<stop  offset="0.9577" style="stop-color:#474747"/>
	</linearGradient>
	<path style="fill:url(#SVGID_00000146482631711888310570000009453837415415967629_);" d="M1269.6,954.5H130.3V197.8
		c0-5.5,4.5-10,10-10h1119.3c5.5,0,10,4.5,10,10V954.5z"/>
	<path d="M134.3,954.5V214.8c0-12.7,10.3-22.9,22.9-22.9h1085.3c12.7,0,22.9,10.3,22.9,22.9v739.7H134.3z"/>
	
		<linearGradient id="SVGID_00000064318906729842543650000008559581284929991056_" gradientUnits="userSpaceOnUse" x1="-2" y1="967.9971" x2="1401.8511" y2="967.9971">
		<stop  offset="0" style="stop-color:#49484D"/>
		<stop  offset="1.211708e-02" style="stop-color:#D3D4D9"/>
		<stop  offset="2.822375e-02" style="stop-color:#D0D1D6"/>
		<stop  offset="8.043561e-02" style="stop-color:#8C8D92"/>
		<stop  offset="9.178013e-02" style="stop-color:#85868B"/>
		<stop  offset="0.5113" style="stop-color:#CBCCD2"/>
		<stop  offset="0.9264" style="stop-color:#85868B"/>
		<stop  offset="0.937" style="stop-color:#8B8C91"/>
		<stop  offset="0.979" style="stop-color:#D0D1D6"/>
		<stop  offset="0.994" style="stop-color:#D3D4D9"/>
		<stop  offset="1" style="stop-color:#454449"/>
	</linearGradient>
	
		<rect x="-2" y="954.5" style="fill:url(#SVGID_00000064318906729842543650000008559581284929991056_);" width="1403.9" height="27"/>
	
		<linearGradient id="SVGID_00000115475184213883112170000000324191214843619473_" gradientUnits="userSpaceOnUse" x1="586.5375" y1="963.9475" x2="813.3135" y2="963.9475">
		<stop  offset="0" style="stop-color:#161617"/>
		<stop  offset="5.807558e-02" style="stop-color:#84848A"/>
		<stop  offset="0.3011" style="stop-color:#8F8F96"/>
		<stop  offset="0.524" style="stop-color:#ADADB5"/>
		<stop  offset="0.7161" style="stop-color:#8A8B91"/>
		<stop  offset="0.9495" style="stop-color:#7B7C81"/>
		<stop  offset="1" style="stop-color:#0D0C11"/>
	</linearGradient>
	<path style="fill:url(#SVGID_00000115475184213883112170000000324191214843619473_);" d="M806.3,973.4H593.5c-3.9,0-7-3.1-7-7
		v-11.9h226.8v11.9C813.3,970.3,810.2,973.4,806.3,973.4z"/>
	<line class="st4" x1="1265.5" y1="930.2" x2="134.3" y2="930.2"/>
	<g>
		
			<linearGradient id="SVGID_00000079448006983130535630000002649102132805082773_" gradientUnits="userSpaceOnUse" x1="115.6783" y1="209.6183" x2="361.5366" y2="455.4766">
			<stop  offset="4.783163e-04" style="stop-color:#9E9E9E"/>
			<stop  offset="1" style="stop-color:#1D1D1B"/>
		</linearGradient>
		<path style="fill:url(#SVGID_00000079448006983130535630000002649102132805082773_);" d="M629.7,195.9L138.4,760.1V214.8
			c0-10.4,8.5-18.9,18.9-18.9H629.7z"/>
	</g>
	<rect x="162.7" y="241.8" class="st6" width="1074.5" height="669.5"/>
	<circle class="st7" cx="699.9" cy="217.5" r="8.1"/>
</g>
<image style="overflow:visible;" width="1441" height="984" xlink:href="CCB98A67.png"  transform="matrix(0.6832 0 0 0.6832 224.7759 240.4242)">
</image>
</svg>
