<?xml version="1.0" encoding="utf-8"?>
<!-- Generator: Adobe Illustrator 26.1.0, SVG Export Plug-In . SVG Version: 6.00 Build 0)  -->
<svg version="1.1" id="Слой_1" xmlns="http://www.w3.org/2000/svg" xmlns:xlink="http://www.w3.org/1999/xlink" x="0px" y="0px"
	 viewBox="0 0 1024 1024" style="enable-background:new 0 0 1024 1024;" xml:space="preserve">
<style type="text/css">
	.st0{fill:#3C7F8B;}
	.st1{fill:#FFFFFF;}
</style>
<rect x="-1" class="st0" width="1027" height="1027"/>
<g>
	<path class="st1" d="M444,437c-3.7-7.3-5.1-12.5-8.3-15.9c-34.1-36.2-37.2-80.1-35.3-126.9c2.4-60.3,78.7-118.7,137.2-102.2
		c61.6,17.5,90.3,57.8,93,120.9c1.7,38.8-7.3,71.4-32.8,100.2c-5,5.7-7.9,13.3-13.6,23.5c38.8,20.1,74.9,39.9,112,57.6
		c21.1,10,30.8,23.9,29,47.5c-1.5,19.1,2.5,39.1-1.6,57.4c-2.4,10.7-14.8,24.1-25.1,26.8c-17.9,4.7-31.4-10.2-27.9-26.6
		c12.7-59.1-27.8-76.4-69.2-94.6c-12.9-5.7-25.2-12.9-37.5-19.8c-38.8-21.8-46.4-49.9-19.6-87c21.5-29.8,36.2-59.6,31.8-97.7
		c-3.5-30.4-31.1-55.3-64.9-54.4c-33.2,0.9-55.3,24.9-57.7,56.8c-2.6,35,6.2,63.9,27.8,92.3c29.2,38.3,19.2,72.3-22.6,93.6
		c-25.2,12.9-50.1,26.5-76.1,37.8c-17.3,7.6-24.8,17.9-23.1,37c1.3,14,2.7,29.7-2.5,41.9c-4,9.5-17.8,19.3-27.9,20.1
		c-6.9,0.5-20.5-13.7-21.5-22.4c-3-26-4.1-53,0.1-78.6c2-12,15.9-25,27.8-31.7C370.5,472.9,407,455.8,444,437z"/>
	<path class="st1" d="M687,724c-117.4,0-228,0-344.7,0c17.3,23.8,31.4,44.3,46.7,63.9c11.2,14.3,18.2,28.3,1.4,42.1
		c-16.4,13.5-30.7,5.7-41.6-8.5c-27.8-36.1-55.4-72.4-82-109.4c-13.2-18.4-6.4-35.9,15.4-41.9c8.6-2.4,18-2.1,27.1-2.1
		c136.8-0.1,273.6-0.6,410.4,0.7c15.2,0.1,35.8,6.7,43.6,17.7c5.3,7.3-4.5,29.7-12.9,41.7c-21.9,31.6-47.1,60.8-70,91.7
		c-11.2,15-24,24.3-40.4,11.2c-15.7-12.5-11.5-28.4-0.5-43C654,768.7,668.3,749.2,687,724z"/>
	<path class="st1" d="M486.5,554.4c0.7-15.1-1.4-31.1,3-45.1c2.9-9.4,15.7-22.9,22.8-22.2c10,1,26,12.8,26.8,21.3
		c3,32,2.9,64.6-0.4,96.5c-0.9,8.2-17.3,19.5-27.5,20.4c-6.8,0.6-19.4-13.4-21.7-22.7c-3.7-15.3-1-32.1-1-48.2
		C487.8,554.4,487.1,554.4,486.5,554.4z"/>
</g>
</svg>
