<?xml version="1.0" encoding="utf-8"?>
<!-- Generator: Adobe Illustrator 26.1.0, SVG Export Plug-In . SVG Version: 6.00 Build 0)  -->
<svg version="1.1" id="Слой_1" xmlns="http://www.w3.org/2000/svg" xmlns:xlink="http://www.w3.org/1999/xlink" x="0px" y="0px"
	 viewBox="0 0 1024 1024" style="enable-background:new 0 0 1024 1024;" xml:space="preserve">
<style type="text/css">
	.st0{fill:#E8ECEE;}
	.st1{fill:#B3B3B3;stroke:#808080;stroke-miterlimit:10;}
	.st2{fill:#FFFFFF;stroke:#808080;stroke-miterlimit:10;}
</style>
<rect x="0" y="1" class="st0" width="1024" height="1024"/>
<g>
	<path d="M205.3,105.4V70.2h5.5v30.5h11.7V70.2h5.5v30.5h11.8V70.2h5.5v35.2H205.3z"/>
	<path d="M259.1,105.9c-2.5,0-4.6-0.7-6.2-2.1c-1.6-1.4-2.4-3.3-2.4-5.6c0-2.2,0.8-4,2.5-5.4c1.7-1.3,4-2.1,7.1-2.2l7-0.4v-2
		c0-1.4-0.5-2.6-1.4-3.4c-0.9-0.8-2.2-1.2-3.8-1.2c-1.5,0-2.7,0.3-3.6,1c-0.9,0.7-1.5,1.6-1.8,2.8h-5c0.1-2.4,1.2-4.3,3.1-5.8
		c1.9-1.5,4.4-2.2,7.5-2.2c3.1,0,5.6,0.8,7.4,2.3c1.8,1.5,2.8,3.6,2.8,6.2v17.7h-5.1v-4.2h-0.1c-0.7,1.4-1.8,2.5-3.3,3.4
		S260.7,105.9,259.1,105.9z M260.5,101.7c1.9,0,3.4-0.6,4.7-1.7c1.3-1.1,1.9-2.5,1.9-4.2v-2l-6.3,0.4c-1.6,0.1-2.8,0.5-3.6,1.2
		s-1.3,1.5-1.3,2.6c0,1.1,0.4,2,1.3,2.7C258,101.4,259.1,101.7,260.5,101.7z"/>
	<path d="M289.3,105.9c-4,0-7.1-1.3-9.2-3.9c-2.1-2.6-3.2-6.4-3.2-11.5c0-4.8,0.5-8.6,1.5-11.6c1-2.9,2.5-5.1,4.5-6.5s4.7-2.2,8-2.3
		l2.3-0.1c3.2-0.1,5.4-0.6,6.7-1.3v4.4c-0.3,0.3-1.1,0.6-2.3,0.9c-1.2,0.3-2.6,0.4-4.1,0.5l-2.2,0.1c-1.7,0.1-3.1,0.3-4.3,0.7
		c-1.2,0.4-2.1,1.1-2.9,2c-0.8,0.9-1.4,2-1.8,3.2c-0.4,1.2-0.8,2.8-1,4.7h0.2c0.8-1.5,2-2.7,3.5-3.5c1.5-0.8,3.3-1.2,5.3-1.2
		c3.5,0,6.2,1.1,8.3,3.4c2.1,2.2,3.1,5.3,3.1,9c0,4-1.1,7.2-3.3,9.5C296.1,104.8,293.1,105.9,289.3,105.9z M289.3,101.5
		c2.2,0,3.9-0.7,5.1-2.2c1.2-1.5,1.8-3.6,1.8-6.3c0-2.6-0.6-4.6-1.8-6c-1.2-1.4-2.9-2.1-5.1-2.1c-2.2,0-3.9,0.7-5.1,2.1
		c-1.2,1.4-1.8,3.4-1.8,6c0,2.7,0.6,4.8,1.8,6.3C285.4,100.8,287.1,101.5,289.3,101.5z"/>
	<path d="M312.9,93.7c-0.1,1.5-0.3,2.9-0.5,4.1c-0.2,1.2-0.5,2.3-0.9,3.3c-0.4,1-0.9,1.9-1.5,2.5s-1.3,1.2-2.2,1.5
		c-0.9,0.4-1.9,0.5-3,0.5c-0.7,0-1.3-0.1-1.8-0.3v-4.6c0.4,0.1,0.9,0.2,1.4,0.2c1.2,0,2-0.6,2.6-1.9c0.6-1.3,0.9-3.1,1.1-5.5
		l0.9-13.8h17.8v25.7h-5.2V83.9h-7.9L312.9,93.7z"/>
	<path d="M352.4,102.3c-2.2,2.4-5.2,3.6-8.9,3.6c-3.7,0-6.6-1.2-8.9-3.6c-2.2-2.4-3.3-5.6-3.3-9.8c0-4.1,1.1-7.3,3.3-9.7
		c2.2-2.4,5.2-3.6,8.9-3.6c3.7,0,6.6,1.2,8.9,3.6c2.2,2.4,3.3,5.6,3.3,9.7C355.7,96.7,354.6,100,352.4,102.3z M343.5,101.6
		c2.1,0,3.8-0.8,5-2.4c1.2-1.6,1.8-3.8,1.8-6.6c0-2.8-0.6-5-1.8-6.6c-1.2-1.6-2.9-2.4-5-2.4c-2.1,0-3.7,0.8-5,2.4
		c-1.2,1.6-1.8,3.8-1.8,6.6c0,2.8,0.6,5,1.8,6.6C339.8,100.8,341.4,101.6,343.5,101.6z"/>
	<path d="M377.1,105.4V94.2h-11.6v11.2h-5.2V79.7h5.2v10.4h11.6V79.7h5.2v25.7H377.1z"/>
	<path d="M388,105.4V79.7h5.2v7.9h4.9c3,0,5.4,0.8,7.1,2.4c1.8,1.6,2.6,3.8,2.6,6.5c0,2.7-0.9,4.9-2.6,6.5c-1.8,1.6-4.1,2.4-7.1,2.4
		H388z M397.7,91.8h-4.4v9.5h4.4c1.5,0,2.7-0.4,3.6-1.3c0.9-0.9,1.4-2,1.4-3.4c0-1.4-0.5-2.6-1.4-3.4
		C400.4,92.2,399.2,91.8,397.7,91.8z M410.9,105.4V79.7h5.2v25.7H410.9z"/>
	<path d="M434.4,112.2h-4.9v-10.9h2.1c1.7-1.1,2.7-3.6,3-7.7l0.9-13.8h18.7v21.5h4v10.9h-4.9v-6.7h-18.9V112.2z M449,101.3V83.9
		h-8.9l-0.7,9.8c-0.2,3.3-0.9,5.7-2,7.3v0.2H449z"/>
	<path d="M469.7,93.7c-0.1,1.5-0.3,2.9-0.5,4.1c-0.2,1.2-0.5,2.3-0.9,3.3c-0.4,1-0.9,1.9-1.5,2.5s-1.3,1.2-2.2,1.5
		c-0.9,0.4-1.9,0.5-3,0.5c-0.7,0-1.3-0.1-1.8-0.3v-4.6c0.4,0.1,0.9,0.2,1.4,0.2c1.2,0,2-0.6,2.6-1.9c0.6-1.3,0.9-3.1,1.1-5.5
		l0.9-13.8h17.8v25.7h-5.2V83.9h-7.9L469.7,93.7z"/>
	<path d="M503.6,105.4v-8.8h-3.9l-6.2,8.8h-6l7-9.7c-1.8-0.5-3.2-1.4-4.2-2.7c-1-1.3-1.5-2.8-1.5-4.6c0-2.7,0.9-4.8,2.7-6.3
		c1.8-1.6,4.2-2.3,7.2-2.3h10.1v25.7H503.6z M498.9,92.6h4.7v-8.7h-4.7c-1.5,0-2.7,0.4-3.6,1.2c-0.9,0.8-1.3,1.9-1.3,3.3
		c0,1.2,0.5,2.2,1.4,3C496.3,92.2,497.5,92.6,498.9,92.6z"/>
	<path d="M538,79.3c3.3,0,5.9,1.2,7.9,3.6c2,2.4,3,5.6,3,9.7s-1,7.3-2.9,9.7c-2,2.4-4.5,3.6-7.8,3.6c-1.8,0-3.4-0.4-4.8-1.2
		s-2.5-2-3.2-3.4h-0.1v12.7h-5.3V79.7h5.1v4.4h0.1c0.8-1.5,1.9-2.7,3.3-3.5C534.5,79.8,536.2,79.3,538,79.3z M536.6,101.4
		c2.1,0,3.7-0.8,5-2.4s1.8-3.7,1.8-6.4c0-2.7-0.6-4.8-1.8-6.4c-1.2-1.6-2.9-2.4-5-2.4c-2,0-3.6,0.8-4.9,2.4
		c-1.2,1.6-1.9,3.7-1.9,6.4c0,2.7,0.6,4.8,1.8,6.4C532.9,100.6,534.6,101.4,536.6,101.4z"/>
	<path d="M560.9,105.9c-2.5,0-4.6-0.7-6.2-2.1c-1.6-1.4-2.4-3.3-2.4-5.6c0-2.2,0.8-4,2.5-5.4c1.7-1.3,4-2.1,7.1-2.2l7-0.4v-2
		c0-1.4-0.5-2.6-1.4-3.4c-0.9-0.8-2.2-1.2-3.8-1.2c-1.5,0-2.7,0.3-3.7,1c-0.9,0.7-1.5,1.6-1.8,2.8h-5c0.1-2.4,1.2-4.3,3.1-5.8
		c1.9-1.5,4.4-2.2,7.5-2.2c3.1,0,5.6,0.8,7.4,2.3c1.8,1.5,2.8,3.6,2.8,6.2v17.7h-5.1v-4.2H569c-0.7,1.4-1.8,2.5-3.3,3.4
		S562.6,105.9,560.9,105.9z M562.3,101.7c1.9,0,3.4-0.6,4.7-1.7c1.3-1.1,1.9-2.5,1.9-4.2v-2l-6.3,0.4c-1.6,0.1-2.8,0.5-3.7,1.2
		s-1.3,1.5-1.3,2.6c0,1.1,0.4,2,1.3,2.7C559.8,101.4,560.9,101.7,562.3,101.7z"/>
	<path d="M601.6,88h-5.1c-0.4-1.3-1-2.3-2.1-3.1c-1-0.8-2.3-1.2-3.9-1.2c-2,0-3.7,0.8-4.9,2.4c-1.2,1.6-1.8,3.8-1.8,6.5
		c0,2.8,0.6,4.9,1.8,6.5s2.9,2.4,4.9,2.4c1.5,0,2.8-0.4,3.8-1.1c1-0.7,1.7-1.8,2.1-3.1h5.1c-0.4,2.6-1.6,4.7-3.6,6.3
		c-2,1.6-4.5,2.4-7.5,2.4c-3.7,0-6.6-1.2-8.8-3.6c-2.2-2.4-3.3-5.6-3.3-9.7c0-4,1.1-7.3,3.3-9.7s5.1-3.6,8.8-3.6
		c3,0,5.5,0.8,7.5,2.5C600,83.4,601.2,85.5,601.6,88z"/>
	<path d="M622.5,105.4V83.9h-11.4v21.5h-5.2V79.7h21.9v25.7H622.5z"/>
	<path d="M638.6,105.4h-5.2V79.7h5.2v18h0.2l11.9-18h5.2v25.7h-5.2v-18h-0.2L638.6,105.4z"/>
	<path d="M683.5,88h-5.1c-0.4-1.3-1-2.3-2.1-3.1c-1-0.8-2.3-1.2-3.9-1.2c-2,0-3.7,0.8-4.9,2.4c-1.2,1.6-1.8,3.8-1.8,6.5
		c0,2.8,0.6,4.9,1.8,6.5s2.9,2.4,4.9,2.4c1.5,0,2.8-0.4,3.8-1.1c1-0.7,1.7-1.8,2.1-3.1h5.1c-0.4,2.6-1.6,4.7-3.6,6.3
		c-2,1.6-4.5,2.4-7.5,2.4c-3.7,0-6.6-1.2-8.8-3.6c-2.2-2.4-3.3-5.6-3.3-9.7c0-4,1.1-7.3,3.3-9.7s5.1-3.6,8.8-3.6
		c3,0,5.5,0.8,7.5,2.5C681.9,83.4,683.1,85.5,683.5,88z"/>
	<path d="M695.3,105.9c-2.5,0-4.6-0.7-6.2-2.1c-1.6-1.4-2.4-3.3-2.4-5.6c0-2.2,0.8-4,2.5-5.4c1.7-1.3,4-2.1,7.1-2.2l7-0.4v-2
		c0-1.4-0.5-2.6-1.4-3.4c-0.9-0.8-2.2-1.2-3.8-1.2c-1.5,0-2.7,0.3-3.6,1c-0.9,0.7-1.5,1.6-1.8,2.8h-5c0.1-2.4,1.2-4.3,3.1-5.8
		c1.9-1.5,4.4-2.2,7.5-2.2c3.1,0,5.6,0.8,7.4,2.3c1.8,1.5,2.8,3.6,2.8,6.2v17.7h-5.1v-4.2h-0.1c-0.7,1.4-1.8,2.5-3.3,3.4
		S697,105.9,695.3,105.9z M696.8,101.7c1.9,0,3.4-0.6,4.7-1.7c1.3-1.1,1.9-2.5,1.9-4.2v-2l-6.3,0.4c-1.6,0.1-2.8,0.5-3.6,1.2
		s-1.3,1.5-1.3,2.6c0,1.1,0.4,2,1.3,2.7C694.2,101.4,695.4,101.7,696.8,101.7z"/>
	<path d="M731,105.4V94.2h-11.6v11.2h-5.2V79.7h5.2v10.4H731V79.7h5.2v25.7H731z"/>
	<path d="M747.1,105.4h-5.2V79.7h5.2v18h0.2l11.9-18h5.2v25.7h-5.2v-18H759L747.1,105.4z"/>
	<path d="M784.5,105.4v-8.8h-3.9l-6.2,8.8h-6l7-9.7c-1.8-0.5-3.2-1.4-4.2-2.7c-1-1.3-1.5-2.8-1.5-4.6c0-2.7,0.9-4.8,2.7-6.3
		c1.8-1.6,4.2-2.3,7.2-2.3h10.1v25.7H784.5z M779.8,92.6h4.7v-8.7h-4.7c-1.5,0-2.7,0.4-3.6,1.2s-1.3,1.9-1.3,3.3
		c0,1.2,0.5,2.2,1.4,3C777.1,92.2,778.3,92.6,779.8,92.6z"/>
	<path d="M805.4,105.4V79.7h11.7c2.5,0,4.5,0.6,5.9,1.7c1.4,1.2,2.1,2.8,2.1,4.8c0,1.3-0.4,2.5-1.3,3.6c-0.8,1.1-1.9,1.7-3.1,1.9V92
		c1.7,0.2,3,0.9,4,2c1,1.1,1.5,2.4,1.5,4c0,2.3-0.8,4.1-2.4,5.4c-1.6,1.3-3.8,2-6.6,2H805.4z M816,83.6h-5.4v6.7h4.9
		c3,0,4.5-1.1,4.5-3.4c0-1.1-0.3-1.9-1-2.5C818.3,83.9,817.3,83.6,816,83.6z M815.9,94h-5.2v7.6h5.8c1.5,0,2.6-0.3,3.4-1
		c0.8-0.6,1.2-1.6,1.2-2.8C821,95.3,819.3,94,815.9,94z"/>
	<path d="M852.9,88h-5.1c-0.4-1.3-1-2.3-2.1-3.1c-1-0.8-2.3-1.2-3.9-1.2c-2,0-3.7,0.8-4.9,2.4c-1.2,1.6-1.8,3.8-1.8,6.5
		c0,2.8,0.6,4.9,1.8,6.5s2.9,2.4,4.9,2.4c1.5,0,2.8-0.4,3.8-1.1c1-0.7,1.7-1.8,2.1-3.1h5.1c-0.4,2.6-1.6,4.7-3.6,6.3
		c-2,1.6-4.5,2.4-7.5,2.4c-3.7,0-6.6-1.2-8.8-3.6c-2.2-2.4-3.3-5.6-3.3-9.7c0-4,1.1-7.3,3.3-9.7s5.1-3.6,8.8-3.6
		c3,0,5.5,0.8,7.5,2.5C851.3,83.4,852.5,85.5,852.9,88z"/>
	<path d="M876.1,79.7v4.2h-8.1v21.5h-5.2V83.9h-8.1v-4.2H876.1z"/>
	<path d="M893.4,79.3c3.3,0,5.9,1.2,7.9,3.6c2,2.4,3,5.6,3,9.7s-1,7.3-2.9,9.7c-2,2.4-4.5,3.6-7.8,3.6c-1.8,0-3.4-0.4-4.8-1.2
		c-1.4-0.8-2.5-2-3.2-3.4h-0.1v12.7H880V79.7h5.1v4.4h0.1c0.8-1.5,1.9-2.7,3.3-3.5C889.9,79.8,891.6,79.3,893.4,79.3z M892,101.4
		c2.1,0,3.7-0.8,5-2.4s1.8-3.7,1.8-6.4c0-2.7-0.6-4.8-1.8-6.4c-1.2-1.6-2.9-2.4-5-2.4c-2,0-3.6,0.8-4.9,2.4
		c-1.2,1.6-1.9,3.7-1.9,6.4c0,2.7,0.6,4.8,1.8,6.4C888.3,100.6,890,101.4,892,101.4z"/>
	<path d="M925.8,97.9h5c-0.4,2.4-1.6,4.3-3.6,5.8c-2,1.5-4.5,2.2-7.4,2.2c-3.8,0-6.7-1.2-8.9-3.6s-3.2-5.6-3.2-9.7
		c0-4,1.1-7.3,3.2-9.7c2.2-2.5,5-3.7,8.7-3.7c3.5,0,6.4,1.2,8.4,3.5c2.1,2.3,3.1,5.4,3.1,9.3v1.8h-18.1v0.3c0,2.2,0.6,4,1.9,5.4
		c1.3,1.4,2.9,2,5,2c1.5,0,2.8-0.3,3.8-1C924.7,99.9,925.4,99,925.8,97.9z M923.9,85.4c-1.2-1.2-2.6-1.9-4.5-1.9
		c-1.8,0-3.3,0.6-4.5,1.9c-1.2,1.2-1.9,2.9-2,4.8h12.8C925.7,88.2,925.1,86.6,923.9,85.4z"/>
	<path d="M956.1,105.4h-5.2V94.5h-0.3c-1.5,1.5-3.7,2.2-6.3,2.2c-3,0-5.3-0.8-6.9-2.5c-1.6-1.7-2.5-3.9-2.5-6.8v-7.6h5.2V87
		c0,1.6,0.4,2.9,1.3,3.8c0.9,0.9,2.1,1.4,3.7,1.4c2.6,0,4.5-0.8,5.9-2.3V79.7h5.2V105.4z"/>
	<path d="M775.4,148h-5.1c-0.4-1.3-1-2.3-2.1-3.1c-1-0.8-2.3-1.2-3.9-1.2c-2,0-3.7,0.8-4.9,2.4c-1.2,1.6-1.8,3.8-1.8,6.5
		c0,2.8,0.6,4.9,1.8,6.5c1.2,1.6,2.9,2.4,4.9,2.4c1.5,0,2.8-0.4,3.8-1.1c1-0.7,1.7-1.8,2.1-3.1h5.1c-0.4,2.6-1.6,4.7-3.6,6.3
		s-4.5,2.4-7.5,2.4c-3.7,0-6.6-1.2-8.8-3.6c-2.2-2.4-3.3-5.6-3.3-9.7c0-4,1.1-7.3,3.3-9.7c2.2-2.4,5.1-3.6,8.8-3.6
		c3,0,5.5,0.8,7.5,2.5C773.8,143.4,775,145.5,775.4,148z"/>
	<path d="M799.6,162.3c-2.2,2.4-5.2,3.6-8.9,3.6c-3.7,0-6.6-1.2-8.9-3.6c-2.2-2.4-3.3-5.6-3.3-9.8c0-4.1,1.1-7.3,3.3-9.7
		c2.2-2.4,5.2-3.6,8.9-3.6c3.7,0,6.6,1.2,8.9,3.6c2.2,2.4,3.3,5.6,3.3,9.7C802.9,156.7,801.8,160,799.6,162.3z M790.7,161.6
		c2.1,0,3.8-0.8,5-2.4c1.2-1.6,1.8-3.8,1.8-6.6c0-2.8-0.6-5-1.8-6.6c-1.2-1.6-2.9-2.4-5-2.4c-2.1,0-3.7,0.8-5,2.4
		c-1.2,1.6-1.8,3.8-1.8,6.6c0,2.8,0.6,5,1.8,6.6C787,160.8,788.6,161.6,790.7,161.6z"/>
	<path d="M818.8,165.9c-4,0-7.1-1.3-9.2-3.9c-2.1-2.6-3.2-6.4-3.2-11.5c0-4.8,0.5-8.6,1.5-11.6c1-2.9,2.5-5.1,4.5-6.5s4.7-2.2,8-2.3
		l2.3-0.1c3.2-0.1,5.4-0.6,6.7-1.3v4.4c-0.3,0.3-1.1,0.6-2.3,0.9c-1.2,0.3-2.6,0.4-4.1,0.5l-2.2,0.1c-1.7,0.1-3.1,0.3-4.3,0.7
		c-1.2,0.4-2.1,1.1-2.9,2c-0.8,0.9-1.4,2-1.8,3.2c-0.4,1.2-0.8,2.8-1,4.7h0.2c0.8-1.5,2-2.7,3.5-3.5c1.5-0.8,3.3-1.2,5.3-1.2
		c3.5,0,6.2,1.1,8.3,3.4c2.1,2.2,3.1,5.3,3.1,9c0,4-1.1,7.2-3.3,9.5C825.6,164.8,822.6,165.9,818.8,165.9z M818.8,161.5
		c2.2,0,3.9-0.7,5.1-2.2c1.2-1.5,1.8-3.6,1.8-6.3c0-2.6-0.6-4.6-1.8-6c-1.2-1.4-2.9-2.1-5.1-2.1c-2.2,0-3.9,0.7-5.1,2.1
		c-1.2,1.4-1.8,3.4-1.8,6c0,2.7,0.6,4.8,1.8,6.3C814.9,160.8,816.6,161.5,818.8,161.5z"/>
	<path d="M849,139.3c3.3,0,5.9,1.2,7.9,3.6c2,2.4,3,5.6,3,9.7s-1,7.3-2.9,9.7c-2,2.4-4.5,3.6-7.8,3.6c-1.8,0-3.4-0.4-4.8-1.2
		s-2.5-2-3.2-3.4h-0.1v12.7h-5.3v-34.2h5.1v4.4h0.1c0.8-1.5,1.9-2.7,3.3-3.5C845.6,139.8,847.2,139.3,849,139.3z M847.6,161.4
		c2.1,0,3.7-0.8,5-2.4s1.8-3.7,1.8-6.4c0-2.7-0.6-4.8-1.8-6.4c-1.2-1.6-2.9-2.4-5-2.4c-2,0-3.6,0.8-4.9,2.4
		c-1.2,1.6-1.9,3.7-1.9,6.4c0,2.7,0.6,4.8,1.8,6.4C844,160.6,845.6,161.4,847.6,161.4z"/>
	<path d="M871.9,165.9c-2.5,0-4.6-0.7-6.2-2.1c-1.6-1.4-2.4-3.3-2.4-5.6c0-2.2,0.8-4,2.5-5.4c1.7-1.3,4-2.1,7.1-2.2l7-0.4v-2
		c0-1.4-0.5-2.6-1.4-3.4c-0.9-0.8-2.2-1.2-3.8-1.2c-1.5,0-2.7,0.3-3.7,1c-0.9,0.7-1.5,1.6-1.8,2.8h-5c0.1-2.4,1.2-4.3,3.1-5.8
		c1.9-1.5,4.4-2.2,7.5-2.2c3.1,0,5.6,0.8,7.4,2.3c1.8,1.5,2.8,3.6,2.8,6.2v17.7h-5.1v-4.2H880c-0.7,1.4-1.8,2.5-3.3,3.4
		S873.6,165.9,871.9,165.9z M873.4,161.7c1.9,0,3.4-0.6,4.7-1.7c1.3-1.1,1.9-2.5,1.9-4.2v-2l-6.3,0.4c-1.6,0.1-2.8,0.5-3.7,1.2
		s-1.3,1.5-1.3,2.6c0,1.1,0.4,2,1.3,2.7C870.8,161.4,871.9,161.7,873.4,161.7z"/>
	<path d="M907.6,165.4v-11.2H896v11.2h-5.2v-25.7h5.2v10.4h11.6v-10.4h5.2v25.7H907.6z"/>
	<path d="M923.7,165.4h-5.2v-25.7h5.2v18h0.2l11.9-18h5.2v25.7h-5.2v-18h-0.2L923.7,165.4z"/>
	<path d="M961.1,165.4v-8.8h-3.9l-6.2,8.8h-6l7-9.7c-1.8-0.5-3.2-1.4-4.2-2.7c-1-1.3-1.5-2.8-1.5-4.6c0-2.7,0.9-4.8,2.7-6.3
		c1.8-1.6,4.2-2.3,7.2-2.3h10.1v25.7H961.1z M956.4,152.6h4.7v-8.7h-4.7c-1.5,0-2.7,0.4-3.6,1.2c-0.9,0.8-1.3,1.9-1.3,3.3
		c0,1.2,0.5,2.2,1.4,3C953.7,152.2,954.9,152.6,956.4,152.6z"/>
</g>
<path class="st1" d="M462.6,578.5H93.4c-28.1,0-50.9-22.8-50.9-50.9V344.4c0-28.1,22.8-50.9,50.9-50.9h369.2
	c28.1,0,50.9,22.8,50.9,50.9v183.2C513.5,555.7,490.7,578.5,462.6,578.5z"/>
<path class="st2" d="M462.6,567.5H93.4c-28.1,0-50.9-22.8-50.9-50.9V333.4c0-28.1,22.8-50.9,50.9-50.9h369.2
	c28.1,0,50.9,22.8,50.9,50.9v183.2C513.5,544.7,490.7,567.5,462.6,567.5z"/>
<g>
	<path d="M124.6,395.6c5.1,0,9.1,1.6,12,4.9c3,3.3,4.5,7.7,4.5,13.3c0,5.6-1.5,10-4.4,13.3c-3,3.3-7,4.9-12.1,4.9s-9.1-1.6-12.1-4.9
		c-3-3.3-4.4-7.7-4.4-13.3c0-5.6,1.5-10,4.4-13.3C115.5,397.3,119.6,395.6,124.6,395.6z M124.6,400.5c-3.4,0-6,1.2-8,3.6
		c-2,2.4-2.9,5.7-2.9,9.8c0,4.1,1,7.4,2.9,9.8c2,2.4,4.6,3.6,8,3.6c3.3,0,6-1.2,7.9-3.6c2-2.4,2.9-5.7,2.9-9.8c0-4.1-1-7.4-2.9-9.8
		C130.6,401.7,128,400.5,124.6,400.5z"/>
	<path d="M157.6,431.9c-4,0-7.1-1.3-9.2-3.9c-2.1-2.6-3.2-6.4-3.2-11.5c0-4.8,0.5-8.6,1.5-11.6c1-2.9,2.5-5.1,4.5-6.5s4.7-2.2,8-2.3
		l2.3-0.1c3.2-0.1,5.4-0.6,6.7-1.3v4.4c-0.3,0.3-1.1,0.6-2.3,0.9c-1.2,0.3-2.6,0.4-4.1,0.5l-2.2,0.1c-1.7,0.1-3.1,0.3-4.3,0.7
		c-1.2,0.4-2.1,1.1-2.9,2c-0.8,0.9-1.4,2-1.8,3.2c-0.4,1.2-0.8,2.8-1,4.7h0.2c0.8-1.5,2-2.7,3.5-3.5c1.5-0.8,3.3-1.2,5.3-1.2
		c3.5,0,6.2,1.1,8.3,3.4c2.1,2.2,3.1,5.3,3.1,9c0,4-1.1,7.2-3.3,9.5C164.4,430.8,161.4,431.9,157.6,431.9z M157.6,427.5
		c2.2,0,3.9-0.7,5.1-2.2c1.2-1.5,1.8-3.6,1.8-6.3c0-2.6-0.6-4.6-1.8-6c-1.2-1.4-2.9-2.1-5.1-2.1c-2.2,0-3.9,0.7-5.1,2.1
		c-1.2,1.4-1.8,3.4-1.8,6c0,2.7,0.6,4.8,1.8,6.3C153.7,426.8,155.4,427.5,157.6,427.5z"/>
	<path d="M174.4,431.5v-25.7h5.2v7.9h4.9c3,0,5.4,0.8,7.1,2.4c1.8,1.6,2.6,3.8,2.6,6.5c0,2.7-0.9,4.9-2.6,6.5
		c-1.8,1.6-4.1,2.4-7.1,2.4H174.4z M184.1,417.8h-4.4v9.5h4.4c1.5,0,2.7-0.4,3.6-1.3c0.9-0.9,1.4-2,1.4-3.4c0-1.4-0.5-2.6-1.4-3.4
		C186.8,418.3,185.6,417.8,184.1,417.8z M197.3,431.5v-25.7h5.2v25.7H197.3z"/>
	<path d="M228.9,431.5h-5.2v-10.9h-0.3c-1.5,1.5-3.7,2.2-6.3,2.2c-3,0-5.3-0.8-6.9-2.5c-1.6-1.7-2.5-3.9-2.5-6.8v-7.6h5.2v7.3
		c0,1.6,0.4,2.9,1.3,3.8c0.9,0.9,2.1,1.4,3.7,1.4c2.6,0,4.5-0.8,5.9-2.3v-10.1h5.2V431.5z"/>
	<path d="M251.4,431.5v-11.2h-11.6v11.2h-5.2v-25.7h5.2v10.4h11.6v-10.4h5.2v25.7H251.4z"/>
	<path d="M269.9,431.9c-2.5,0-4.6-0.7-6.2-2.1c-1.6-1.4-2.4-3.3-2.4-5.6c0-2.2,0.8-4,2.5-5.4c1.7-1.3,4-2.1,7.1-2.2l7-0.4v-2
		c0-1.4-0.5-2.6-1.4-3.4c-0.9-0.8-2.2-1.2-3.8-1.2c-1.5,0-2.7,0.3-3.6,1c-0.9,0.7-1.5,1.6-1.8,2.8h-5c0.1-2.4,1.2-4.3,3.1-5.8
		c1.9-1.5,4.4-2.2,7.5-2.2c3.1,0,5.6,0.8,7.4,2.3c1.8,1.5,2.8,3.6,2.8,6.2v17.7h-5.1v-4.2H278c-0.7,1.4-1.8,2.5-3.3,3.4
		S271.6,431.9,269.9,431.9z M271.4,427.7c1.9,0,3.4-0.6,4.7-1.7c1.3-1.1,1.9-2.5,1.9-4.2v-2l-6.3,0.4c-1.6,0.1-2.8,0.5-3.6,1.2
		c-0.9,0.7-1.3,1.5-1.3,2.6c0,1.1,0.4,2,1.3,2.7C268.8,427.4,269.9,427.7,271.4,427.7z"/>
	<path d="M303.1,431.5v-8.8h-3.9l-6.2,8.8h-6l7-9.7c-1.8-0.5-3.2-1.4-4.2-2.7c-1-1.3-1.5-2.8-1.5-4.6c0-2.7,0.9-4.8,2.7-6.3
		c1.8-1.6,4.2-2.3,7.2-2.3h10.1v25.7H303.1z M298.5,418.6h4.7v-8.7h-4.7c-1.5,0-2.7,0.4-3.6,1.2c-0.9,0.8-1.3,1.9-1.3,3.3
		c0,1.2,0.5,2.2,1.4,3C295.8,418.2,297,418.6,298.5,418.6z"/>
	<path d="M341,431.5v-11.2h-11.6v11.2h-5.2v-25.7h5.2v10.4H341v-10.4h5.2v25.7H341z"/>
	<path d="M368.9,423.9h5c-0.4,2.4-1.6,4.3-3.6,5.8c-2,1.5-4.5,2.2-7.4,2.2c-3.8,0-6.7-1.2-8.9-3.6c-2.2-2.4-3.2-5.6-3.2-9.7
		c0-4,1.1-7.3,3.2-9.7c2.2-2.5,5-3.7,8.7-3.7c3.5,0,6.4,1.2,8.4,3.5c2.1,2.3,3.1,5.4,3.1,9.3v1.8h-18.1v0.3c0,2.2,0.6,4,1.9,5.4
		c1.3,1.4,2.9,2,5,2c1.5,0,2.8-0.3,3.8-1C367.9,426,368.6,425.1,368.9,423.9z M367.1,411.4c-1.2-1.2-2.6-1.9-4.5-1.9
		c-1.8,0-3.3,0.6-4.5,1.9c-1.2,1.2-1.9,2.9-2,4.8H369C368.9,414.3,368.3,412.7,367.1,411.4z"/>
	<path d="M380.8,438.2h-4.9v-10.9h2.1c1.7-1.1,2.7-3.6,3-7.7l0.9-13.8h18.7v21.5h4v10.9h-4.9v-6.7h-18.9V438.2z M395.4,427.3v-17.3
		h-8.9l-0.7,9.8c-0.2,3.3-0.9,5.7-2,7.3v0.2H395.4z"/>
	<path d="M425.2,423.9h5c-0.4,2.4-1.6,4.3-3.6,5.8c-2,1.5-4.5,2.2-7.4,2.2c-3.8,0-6.7-1.2-8.9-3.6c-2.2-2.4-3.2-5.6-3.2-9.7
		c0-4,1.1-7.3,3.2-9.7c2.2-2.5,5-3.7,8.7-3.7c3.5,0,6.4,1.2,8.4,3.5c2.1,2.3,3.1,5.4,3.1,9.3v1.8h-18.1v0.3c0,2.2,0.6,4,1.9,5.4
		c1.3,1.4,2.9,2,5,2c1.5,0,2.8-0.3,3.8-1C424.2,426,424.9,425.1,425.2,423.9z M423.4,411.4c-1.2-1.2-2.6-1.9-4.5-1.9
		c-1.8,0-3.3,0.6-4.5,1.9c-1.2,1.2-1.9,2.9-2,4.8h12.8C425.2,414.3,424.6,412.7,423.4,411.4z"/>
	<path d="M441.9,419.8c-0.1,1.5-0.3,2.9-0.5,4.1c-0.2,1.2-0.5,2.3-0.9,3.3c-0.4,1-0.9,1.9-1.5,2.5c-0.6,0.7-1.3,1.2-2.2,1.5
		c-0.9,0.4-1.9,0.5-3,0.5c-0.7,0-1.3-0.1-1.8-0.3v-4.6c0.4,0.1,0.9,0.2,1.4,0.2c1.2,0,2-0.6,2.6-1.9c0.6-1.3,0.9-3.1,1.1-5.5
		l0.9-13.8h17.8v25.7h-5.2v-21.5h-7.9L441.9,419.8z"/>
	<path d="M475.8,431.5v-8.8h-3.9l-6.2,8.8h-6l7-9.7c-1.8-0.5-3.2-1.4-4.2-2.7c-1-1.3-1.5-2.8-1.5-4.6c0-2.7,0.9-4.8,2.7-6.3
		c1.8-1.6,4.2-2.3,7.2-2.3H481v25.7H475.8z M471.2,418.6h4.7v-8.7h-4.7c-1.5,0-2.7,0.4-3.6,1.2c-0.9,0.8-1.3,1.9-1.3,3.3
		c0,1.2,0.5,2.2,1.4,3C468.5,418.2,469.7,418.6,471.2,418.6z"/>
</g>
<path class="st1" d="M946.6,579.5H577.4c-28.1,0-50.9-22.8-50.9-50.9V345.4c0-28.1,22.8-50.9,50.9-50.9h369.2
	c28.1,0,50.9,22.8,50.9,50.9v183.2C997.5,556.7,974.7,579.5,946.6,579.5z"/>
<path class="st2" d="M946.6,568.5H577.4c-28.1,0-50.9-22.8-50.9-50.9V334.4c0-28.1,22.8-50.9,50.9-50.9h369.2
	c28.1,0,50.9,22.8,50.9,50.9v183.2C997.5,545.7,974.7,568.5,946.6,568.5z"/>
<g>
	<path d="M664,377.5h-5.4V347h-17.6v30.5h-5.5v-35.2H664V377.5z"/>
	<path d="M690.2,374.4c-2.2,2.4-5.2,3.6-8.9,3.6c-3.7,0-6.6-1.2-8.9-3.6c-2.2-2.4-3.3-5.6-3.3-9.8c0-4.1,1.1-7.3,3.3-9.7
		c2.2-2.4,5.2-3.6,8.9-3.6c3.7,0,6.6,1.2,8.9,3.6c2.2,2.4,3.3,5.6,3.3,9.7C693.5,368.7,692.4,372,690.2,374.4z M681.3,373.6
		c2.1,0,3.8-0.8,5-2.4c1.2-1.6,1.8-3.8,1.8-6.6c0-2.8-0.6-5-1.8-6.6c-1.2-1.6-2.9-2.4-5-2.4c-2.1,0-3.7,0.8-5,2.4
		c-1.2,1.6-1.8,3.8-1.8,6.6c0,2.8,0.6,5,1.8,6.6C677.6,372.8,679.2,373.6,681.3,373.6z"/>
	<path d="M719.9,360h-5.1c-0.4-1.3-1-2.3-2.1-3.1c-1-0.8-2.3-1.2-3.9-1.2c-2,0-3.7,0.8-4.9,2.4c-1.2,1.6-1.8,3.8-1.8,6.5
		c0,2.8,0.6,4.9,1.8,6.5c1.2,1.6,2.9,2.4,4.9,2.4c1.5,0,2.8-0.4,3.8-1.1c1-0.7,1.7-1.8,2.1-3.1h5.1c-0.4,2.6-1.6,4.7-3.6,6.3
		c-2,1.6-4.5,2.4-7.5,2.4c-3.7,0-6.6-1.2-8.8-3.6s-3.3-5.6-3.3-9.7c0-4,1.1-7.3,3.3-9.7c2.2-2.4,5.1-3.6,8.8-3.6
		c3,0,5.5,0.8,7.5,2.5C718.4,355.4,719.6,357.5,719.9,360z"/>
	<path d="M741.3,369.9h5c-0.4,2.4-1.6,4.3-3.6,5.8c-2,1.5-4.5,2.2-7.4,2.2c-3.8,0-6.7-1.2-8.9-3.6c-2.2-2.4-3.2-5.6-3.2-9.7
		c0-4,1.1-7.3,3.2-9.7c2.2-2.5,5-3.7,8.7-3.7c3.5,0,6.4,1.2,8.4,3.5c2.1,2.3,3.1,5.4,3.1,9.3v1.8h-18.1v0.3c0,2.2,0.6,4,1.9,5.4
		c1.3,1.4,2.9,2,5,2c1.5,0,2.8-0.3,3.8-1C740.2,372,740.9,371.1,741.3,369.9z M739.4,357.4c-1.2-1.2-2.6-1.9-4.5-1.9
		c-1.8,0-3.3,0.6-4.5,1.9c-1.2,1.2-1.9,2.9-2,4.8h12.8C741.2,360.3,740.6,358.7,739.4,357.4z"/>
	<path d="M788,384.2h-4.9v-6.7h-32.1v-25.7h5.2v21.5h8.6v-21.5h5.2v21.5h8.6v-21.5h5.2v21.5h3.9V384.2z"/>
	<path d="M808.6,369.9h5c-0.4,2.4-1.6,4.3-3.6,5.8c-2,1.5-4.5,2.2-7.4,2.2c-3.8,0-6.7-1.2-8.9-3.6c-2.2-2.4-3.2-5.6-3.2-9.7
		c0-4,1.1-7.3,3.2-9.7c2.2-2.5,5-3.7,8.7-3.7c3.5,0,6.4,1.2,8.4,3.5c2.1,2.3,3.1,5.4,3.1,9.3v1.8h-18.1v0.3c0,2.2,0.6,4,1.9,5.4
		c1.3,1.4,2.9,2,5,2c1.5,0,2.8-0.3,3.8-1S808.3,371.1,808.6,369.9z M806.8,357.4c-1.2-1.2-2.6-1.9-4.5-1.9s-3.3,0.6-4.5,1.9
		c-1.2,1.2-1.9,2.9-2,4.8h12.8C808.6,360.3,808,358.7,806.8,357.4z"/>
	<path d="M835.3,377.5v-11.2h-11.6v11.2h-5.2v-25.7h5.2v10.4h11.6v-10.4h5.2v25.7H835.3z"/>
	<path d="M851.4,377.5h-5.2v-25.7h5.2v18h0.2l11.9-18h5.2v25.7h-5.2v-18h-0.2L851.4,377.5z"/>
	<path d="M891.4,369.9h5c-0.4,2.4-1.6,4.3-3.6,5.8c-2,1.5-4.5,2.2-7.4,2.2c-3.8,0-6.7-1.2-8.9-3.6c-2.2-2.4-3.2-5.6-3.2-9.7
		c0-4,1.1-7.3,3.2-9.7c2.2-2.5,5-3.7,8.7-3.7c3.5,0,6.4,1.2,8.4,3.5c2.1,2.3,3.1,5.4,3.1,9.3v1.8h-18.1v0.3c0,2.2,0.6,4,1.9,5.4
		c1.3,1.4,2.9,2,5,2c1.5,0,2.8-0.3,3.8-1C890.3,372,891,371.1,891.4,369.9z M889.6,357.4c-1.2-1.2-2.6-1.9-4.5-1.9
		c-1.8,0-3.3,0.6-4.5,1.9c-1.2,1.2-1.9,2.9-2,4.8h12.8C891.4,360.3,890.8,358.7,889.6,357.4z"/>
	<path d="M648.1,411.4c3.3,0,5.9,1.2,7.9,3.6s3,5.6,3,9.7s-1,7.3-2.9,9.7c-2,2.4-4.5,3.6-7.8,3.6c-1.8,0-3.4-0.4-4.8-1.2
		s-2.5-2-3.2-3.4H640V446h-5.3v-34.2h5.1v4.4h0.1c0.8-1.5,1.9-2.7,3.3-3.5C644.7,411.8,646.3,411.4,648.1,411.4z M646.7,433.4
		c2.1,0,3.7-0.8,5-2.4c1.2-1.6,1.8-3.7,1.8-6.4c0-2.7-0.6-4.8-1.8-6.4c-1.2-1.6-2.9-2.4-5-2.4c-2,0-3.6,0.8-4.9,2.4
		c-1.2,1.6-1.9,3.7-1.9,6.4c0,2.7,0.6,4.8,1.8,6.4C643.1,432.6,644.7,433.4,646.7,433.4z"/>
	<path d="M671,437.9c-2.5,0-4.6-0.7-6.2-2.1c-1.6-1.4-2.4-3.3-2.4-5.6c0-2.2,0.8-4,2.5-5.4c1.7-1.3,4-2.1,7.1-2.2l7-0.4v-2
		c0-1.4-0.5-2.6-1.4-3.4c-0.9-0.8-2.2-1.2-3.8-1.2c-1.5,0-2.7,0.3-3.7,1c-0.9,0.7-1.5,1.6-1.8,2.8h-5c0.1-2.4,1.2-4.3,3.1-5.8
		c1.9-1.5,4.4-2.2,7.5-2.2c3.1,0,5.6,0.8,7.4,2.3c1.8,1.5,2.8,3.6,2.8,6.2v17.7h-5.1v-4.2h-0.1c-0.7,1.4-1.8,2.5-3.3,3.4
		C674.3,437.5,672.7,437.9,671,437.9z M672.5,433.7c1.9,0,3.4-0.6,4.7-1.7c1.3-1.1,1.9-2.5,1.9-4.2v-2l-6.3,0.4
		c-1.6,0.1-2.8,0.5-3.7,1.2c-0.9,0.7-1.3,1.5-1.3,2.6c0,1.1,0.4,2,1.3,2.7C669.9,433.4,671.1,433.7,672.5,433.7z"/>
	<path d="M695,437.5h-5.2v-25.7h5.2v18h0.2l11.9-18h5.2v25.7h-5.2v-18h-0.2L695,437.5z M693.3,400.5h3.6c0,1.4,0.4,2.6,1.3,3.5
		c0.8,0.9,1.9,1.4,3.3,1.4c1.4,0,2.5-0.5,3.3-1.4c0.8-0.9,1.3-2.1,1.3-3.5h3.6c0,2.3-0.7,4.2-2.2,5.6c-1.5,1.4-3.5,2.1-5.9,2.1
		c-2.4,0-4.4-0.7-5.9-2.1C694.1,404.7,693.3,402.8,693.3,400.5z"/>
	<path d="M737.9,434.4c-2.2,2.4-5.2,3.6-8.9,3.6c-3.7,0-6.6-1.2-8.9-3.6c-2.2-2.4-3.3-5.6-3.3-9.8c0-4.1,1.1-7.3,3.3-9.7
		c2.2-2.4,5.2-3.6,8.9-3.6c3.7,0,6.6,1.2,8.9,3.6c2.2,2.4,3.3,5.6,3.3,9.7C741.2,428.7,740.1,432,737.9,434.4z M729,433.6
		c2.1,0,3.8-0.8,5-2.4c1.2-1.6,1.8-3.8,1.8-6.6c0-2.8-0.6-5-1.8-6.6c-1.2-1.6-2.9-2.4-5-2.4c-2.1,0-3.7,0.8-5,2.4
		c-1.2,1.6-1.8,3.8-1.8,6.6c0,2.8,0.6,5,1.8,6.6C725.3,432.8,726.9,433.6,729,433.6z"/>
	<path d="M762.6,437.5v-11.2H751v11.2h-5.2v-25.7h5.2v10.4h11.6v-10.4h5.2v25.7H762.6z"/>
	<path d="M790.4,437.5v-11.2h-11.6v11.2h-5.2v-25.7h5.2v10.4h11.6v-10.4h5.2v25.7H790.4z"/>
	<path d="M821.3,434.4c-2.2,2.4-5.2,3.6-8.9,3.6s-6.6-1.2-8.9-3.6c-2.2-2.4-3.3-5.6-3.3-9.8c0-4.1,1.1-7.3,3.3-9.7
		c2.2-2.4,5.2-3.6,8.9-3.6s6.6,1.2,8.9,3.6c2.2,2.4,3.3,5.6,3.3,9.7C824.6,428.7,823.5,432,821.3,434.4z M812.4,433.6
		c2.1,0,3.8-0.8,5-2.4c1.2-1.6,1.8-3.8,1.8-6.6c0-2.8-0.6-5-1.8-6.6c-1.2-1.6-2.9-2.4-5-2.4s-3.7,0.8-5,2.4
		c-1.2,1.6-1.8,3.8-1.8,6.6c0,2.8,0.6,5,1.8,6.6C808.7,432.8,810.3,433.6,812.4,433.6z"/>
	<path d="M846.1,415.9h-11.8v21.5h-5.2v-25.7h17V415.9z"/>
	<path d="M869.6,434.4c-2.2,2.4-5.2,3.6-8.9,3.6s-6.6-1.2-8.9-3.6c-2.2-2.4-3.3-5.6-3.3-9.8c0-4.1,1.1-7.3,3.3-9.7
		c2.2-2.4,5.2-3.6,8.9-3.6s6.6,1.2,8.9,3.6c2.2,2.4,3.3,5.6,3.3,9.7C873,428.7,871.9,432,869.6,434.4z M860.8,433.6
		c2.1,0,3.8-0.8,5-2.4c1.2-1.6,1.8-3.8,1.8-6.6c0-2.8-0.6-5-1.8-6.6c-1.2-1.6-2.9-2.4-5-2.4s-3.7,0.8-5,2.4
		c-1.2,1.6-1.8,3.8-1.8,6.6c0,2.8,0.6,5,1.8,6.6C857,432.8,858.7,433.6,860.8,433.6z"/>
	<path d="M656.7,480h-5.1c-0.4-1.3-1-2.3-2.1-3.1c-1-0.8-2.3-1.2-3.9-1.2c-2,0-3.7,0.8-4.9,2.4c-1.2,1.6-1.8,3.8-1.8,6.5
		c0,2.8,0.6,4.9,1.8,6.5c1.2,1.6,2.9,2.4,4.9,2.4c1.5,0,2.8-0.4,3.8-1.1c1-0.7,1.7-1.8,2.1-3.1h5.1c-0.4,2.6-1.6,4.7-3.6,6.3
		c-2,1.6-4.5,2.4-7.5,2.4c-3.7,0-6.6-1.2-8.8-3.6s-3.3-5.6-3.3-9.7c0-4,1.1-7.3,3.3-9.7c2.2-2.4,5.1-3.6,8.8-3.6
		c3,0,5.5,0.8,7.5,2.5C655.1,475.4,656.3,477.5,656.7,480z"/>
	<path d="M679.9,471.8v4.2h-8.1v21.5h-5.2v-21.5h-8.1v-4.2H679.9z"/>
	<path d="M690.5,497.9c-2.5,0-4.6-0.7-6.2-2.1c-1.6-1.4-2.4-3.3-2.4-5.6c0-2.2,0.8-4,2.5-5.4c1.7-1.3,4-2.1,7.1-2.2l7-0.4v-2
		c0-1.4-0.5-2.6-1.4-3.4c-0.9-0.8-2.2-1.2-3.8-1.2c-1.5,0-2.7,0.3-3.7,1c-0.9,0.7-1.5,1.6-1.8,2.8h-5c0.1-2.4,1.2-4.3,3.1-5.8
		c1.9-1.5,4.4-2.2,7.5-2.2c3.1,0,5.6,0.8,7.4,2.3c1.8,1.5,2.8,3.6,2.8,6.2v17.7h-5.1v-4.2h-0.1c-0.7,1.4-1.8,2.5-3.3,3.4
		C693.8,497.5,692.2,497.9,690.5,497.9z M692,493.7c1.9,0,3.4-0.6,4.7-1.7c1.3-1.1,1.9-2.5,1.9-4.2v-2l-6.3,0.4
		c-1.6,0.1-2.8,0.5-3.7,1.2c-0.9,0.7-1.3,1.5-1.3,2.6c0,1.1,0.4,2,1.3,2.7C689.4,493.4,690.5,493.7,692,493.7z"/>
	<path d="M722.7,471.4c3.3,0,5.9,1.2,7.9,3.6c2,2.4,3,5.6,3,9.7s-1,7.3-2.9,9.7c-2,2.4-4.5,3.6-7.8,3.6c-1.8,0-3.4-0.4-4.8-1.2
		c-1.4-0.8-2.5-2-3.2-3.4h-0.1V506h-5.3v-34.2h5.1v4.4h0.1c0.8-1.5,1.9-2.7,3.3-3.5C719.3,471.8,720.9,471.4,722.7,471.4z
		 M721.3,493.4c2.1,0,3.7-0.8,5-2.4c1.2-1.6,1.8-3.7,1.8-6.4c0-2.7-0.6-4.8-1.8-6.4c-1.2-1.6-2.9-2.4-5-2.4c-2,0-3.6,0.8-4.9,2.4
		s-1.9,3.7-1.9,6.4c0,2.7,0.6,4.8,1.8,6.4C717.7,492.6,719.3,493.4,721.3,493.4z"/>
	<path d="M755.1,489.9h5c-0.4,2.4-1.6,4.3-3.6,5.8c-2,1.5-4.5,2.2-7.4,2.2c-3.8,0-6.7-1.2-8.9-3.6c-2.2-2.4-3.2-5.6-3.2-9.7
		c0-4,1.1-7.3,3.2-9.7c2.2-2.5,5-3.7,8.7-3.7c3.5,0,6.4,1.2,8.4,3.5c2.1,2.3,3.1,5.4,3.1,9.3v1.8h-18.1v0.3c0,2.2,0.6,4,1.9,5.4
		c1.3,1.4,2.9,2,5,2c1.5,0,2.8-0.3,3.8-1S754.7,491.1,755.1,489.9z M753.3,477.4c-1.2-1.2-2.6-1.9-4.5-1.9s-3.3,0.6-4.5,1.9
		c-1.2,1.2-1.9,2.9-2,4.8h12.8C755.1,480.3,754.4,478.7,753.3,477.4z"/>
	<path d="M770.1,497.5h-5.2v-25.7h5.2v18h0.2l11.9-18h5.2v25.7h-5.2v-18H782L770.1,497.5z M768.4,460.5h3.6c0,1.4,0.4,2.6,1.3,3.5
		c0.8,0.9,1.9,1.4,3.3,1.4c1.4,0,2.5-0.5,3.3-1.4c0.8-0.9,1.3-2.1,1.3-3.5h3.6c0,2.3-0.7,4.2-2.2,5.6c-1.5,1.4-3.5,2.1-5.9,2.1
		c-2.4,0-4.4-0.7-5.9-2.1C769.2,464.7,768.4,462.8,768.4,460.5z"/>
	<path d="M793,497.5v-25.7h5.2v21.5h8.6v-21.5h5.2v21.5h8.6v-21.5h5.2v25.7H793z"/>
	<path d="M836.9,497.5h-5.2v-25.7h5.2v18h0.2l11.9-18h5.2v25.7h-5.2v-18h-0.2L836.9,497.5z"/>
	<path d="M876.7,497.5v-11.2h-11.6v11.2h-5.2v-25.7h5.2v10.4h11.6v-10.4h5.2v25.7H876.7z"/>
	<path d="M887.6,497.5v-25.7h5.2v7.9h4.9c3,0,5.4,0.8,7.1,2.4c1.8,1.6,2.6,3.8,2.6,6.5c0,2.7-0.9,4.9-2.6,6.5
		c-1.8,1.6-4.1,2.4-7.1,2.4H887.6z M897.3,483.8h-4.4v9.5h4.4c1.5,0,2.7-0.4,3.6-1.3c0.9-0.9,1.4-2,1.4-3.4c0-1.4-0.5-2.6-1.4-3.4
		C900,484.3,898.8,483.8,897.3,483.8z M910.5,497.5v-25.7h5.2v25.7H910.5z"/>
</g>
<path class="st1" d="M462.6,898.5H93.4c-28.1,0-50.9-22.8-50.9-50.9V664.4c0-28.1,22.8-50.9,50.9-50.9h369.2
	c28.1,0,50.9,22.8,50.9,50.9v183.2C513.5,875.7,490.7,898.5,462.6,898.5z"/>
<path class="st2" d="M462.6,887.5H93.4c-28.1,0-50.9-22.8-50.9-50.9V653.4c0-28.1,22.8-50.9,50.9-50.9h369.2
	c28.1,0,50.9,22.8,50.9,50.9v183.2C513.5,864.7,490.7,887.5,462.6,887.5z"/>
<g>
	<path d="M190.5,738l16.9,18.4h-7.2l-15.2-16.5h-0.2v16.5h-5.5v-35.2h5.5V737h0.2l14.4-15.8h6.5L190.5,738z"/>
	<path d="M229.1,753.4c-2.2,2.4-5.2,3.6-8.9,3.6c-3.7,0-6.6-1.2-8.9-3.6c-2.2-2.4-3.3-5.6-3.3-9.8c0-4.1,1.1-7.3,3.3-9.7
		c2.2-2.4,5.2-3.6,8.9-3.6c3.7,0,6.6,1.2,8.9,3.6c2.2,2.4,3.3,5.6,3.3,9.7C232.4,747.7,231.3,751,229.1,753.4z M220.3,752.6
		c2.1,0,3.8-0.8,5-2.4c1.2-1.6,1.8-3.8,1.8-6.6c0-2.8-0.6-5-1.8-6.6c-1.2-1.6-2.9-2.4-5-2.4c-2.1,0-3.7,0.8-5,2.4
		c-1.2,1.6-1.8,3.8-1.8,6.6c0,2.8,0.6,5,1.8,6.6C216.5,751.8,218.2,752.6,220.3,752.6z"/>
	<path d="M253.8,756.5v-11.2h-11.6v11.2H237v-25.7h5.2v10.4h11.6v-10.4h5.2v25.7H253.8z"/>
	<path d="M281.8,734.9H270v21.5h-5.2v-25.7h17V734.9z"/>
	<path d="M299.6,730.4c3.3,0,5.9,1.2,7.9,3.6c2,2.4,3,5.6,3,9.7s-1,7.3-2.9,9.7c-2,2.4-4.5,3.6-7.8,3.6c-1.8,0-3.4-0.4-4.8-1.2
		c-1.4-0.8-2.5-2-3.2-3.4h-0.1V765h-5.3v-34.2h5.1v4.4h0.1c0.8-1.5,1.9-2.7,3.3-3.5C296.2,730.8,297.8,730.4,299.6,730.4z
		 M298.2,752.4c2.1,0,3.7-0.8,5-2.4c1.2-1.6,1.8-3.7,1.8-6.4c0-2.7-0.6-4.8-1.8-6.4c-1.2-1.6-2.9-2.4-5-2.4c-2,0-3.6,0.8-4.9,2.4
		c-1.2,1.6-1.9,3.7-1.9,6.4c0,2.7,0.6,4.8,1.8,6.4C294.6,751.6,296.2,752.4,298.2,752.4z"/>
	<path d="M332,748.9h5c-0.4,2.4-1.6,4.3-3.6,5.8c-2,1.5-4.5,2.2-7.4,2.2c-3.8,0-6.7-1.2-8.9-3.6c-2.2-2.4-3.2-5.6-3.2-9.7
		c0-4,1.1-7.3,3.2-9.7c2.2-2.5,5-3.7,8.7-3.7c3.5,0,6.4,1.2,8.4,3.5c2.1,2.3,3.1,5.4,3.1,9.3v1.8h-18.1v0.3c0,2.2,0.6,4,1.9,5.4
		c1.3,1.4,2.9,2,5,2c1.5,0,2.8-0.3,3.8-1C330.9,751,331.6,750.1,332,748.9z M330.2,736.4c-1.2-1.2-2.6-1.9-4.5-1.9
		c-1.8,0-3.3,0.6-4.5,1.9c-1.2,1.2-1.9,2.9-2,4.8H332C331.9,739.3,331.3,737.7,330.2,736.4z"/>
	<path d="M363.7,739h-5.1c-0.4-1.3-1-2.3-2.1-3.1c-1-0.8-2.3-1.2-3.9-1.2c-2,0-3.7,0.8-4.9,2.4c-1.2,1.6-1.8,3.8-1.8,6.5
		c0,2.8,0.6,4.9,1.8,6.5c1.2,1.6,2.9,2.4,4.9,2.4c1.5,0,2.8-0.4,3.8-1.1c1-0.7,1.7-1.8,2.1-3.1h5.1c-0.4,2.6-1.6,4.7-3.6,6.3
		c-2,1.6-4.5,2.4-7.5,2.4c-3.7,0-6.6-1.2-8.8-3.6c-2.2-2.4-3.3-5.6-3.3-9.7c0-4,1.1-7.3,3.3-9.7c2.2-2.4,5.1-3.6,8.8-3.6
		c3,0,5.5,0.8,7.5,2.5C362.2,734.4,363.3,736.5,363.7,739z"/>
	<path d="M389.9,739h-5.1c-0.4-1.3-1-2.3-2.1-3.1c-1-0.8-2.3-1.2-3.9-1.2c-2,0-3.7,0.8-4.9,2.4c-1.2,1.6-1.8,3.8-1.8,6.5
		c0,2.8,0.6,4.9,1.8,6.5c1.2,1.6,2.9,2.4,4.9,2.4c1.5,0,2.8-0.4,3.8-1.1c1-0.7,1.7-1.8,2.1-3.1h5.1c-0.4,2.6-1.6,4.7-3.6,6.3
		c-2,1.6-4.5,2.4-7.5,2.4c-3.7,0-6.6-1.2-8.8-3.6c-2.2-2.4-3.3-5.6-3.3-9.7c0-4,1.1-7.3,3.3-9.7c2.2-2.4,5.1-3.6,8.8-3.6
		c3,0,5.5,0.8,7.5,2.5C388.4,734.4,389.5,736.5,389.9,739z"/>
</g>
</svg>
