<?xml version="1.0" encoding="utf-8"?>
<!-- Generator: Adobe Illustrator 26.1.0, SVG Export Plug-In . SVG Version: 6.00 Build 0)  -->
<svg version="1.1" id="Слой_1" xmlns="http://www.w3.org/2000/svg" xmlns:xlink="http://www.w3.org/1999/xlink" x="0px" y="0px"
	 viewBox="0 0 1024 1024" style="enable-background:new 0 0 1024 1024;" xml:space="preserve">
<style type="text/css">
	.st0{fill:#2B3F60;}
	.st1{fill:#FFFFFF;}
</style>
<rect x="-1" class="st0" width="1027" height="1027"/>
<path class="st1" d="M718,490.4c-0.3,24.8-9,43-42.7,37.2c0,43.4-1,84.2,0.4,125c0.8,24.2-10,33-33.6,32.9
	c-85.7-0.4-171.4,0.1-257-0.3c-30.6-0.1-35.3-5.5-35.5-36.1c-0.2-39.3,0-78.5,0-117.4c-37.2-8.6-37.2-8.6-43-40.5
	c-38.2-7.4-38.2-7.4-38.2-45.5c0-41.1,0.7-82.2-0.3-123.2c-0.6-22,8.1-32.5,31.2-32.5c141.6,0.2,283.2,0.2,424.8,0
	c24.2,0,33.5,10.5,32.7,33.9c-1.2,41-0.3,82.1-0.4,123.2C756.4,484.4,755.8,485.1,718,490.4z M312,446.5
	c31.8-2.2,41.4,14.9,40.6,39.6c36.3,3,39,5.9,39.1,40.5c0.1,38.8,0,77.6,0,116.1c83,0,161.1,0,241.4,0c0-38.3-0.1-74.9,0-111.4
	c0.1-39.6,0.4-39.9,40.8-47.4c-5.5-29.1,13.8-37.4,38.8-39.2c0-38.3,0-74.6,0-112c-26.2,0-50.9,0-77.8,0c0,18.3,2.5,35.4-0.9,51.2
	c-2,9.4-13.4,16.9-20.6,25.3c-6.8-8.7-17.5-16.8-19.4-26.4c-3.2-16.5-0.9-33.9-0.9-50.2c-22,0-39.6,0-59.3,0
	c0,17.3,2.7,33.5-0.9,48.3c-2.5,10.4-13.5,18.9-20.7,28.2c-7.1-9.5-17.9-18.1-20.3-28.6c-3.5-15.5-0.9-32.2-0.9-48
	c-22,0-39.6,0-59.3,0c0,17.1,0.1,32.7,0,48.2c-0.1,13.9-1.8,27.9-20.4,27.9c-17.8,0-21.5-13-21.7-27.3c-0.1-16.2,0-32.4,0-48.8
	c-28.4,0-52.3,0-77.7,0C312,370.3,312,406.6,312,446.5z"/>
</svg>
