<?xml version="1.0" encoding="utf-8"?>
<!-- Generator: Adobe Illustrator 26.1.0, SVG Export Plug-In . SVG Version: 6.00 Build 0)  -->
<svg version="1.1" id="Слой_1" xmlns="http://www.w3.org/2000/svg" xmlns:xlink="http://www.w3.org/1999/xlink" x="0px" y="0px"
	 viewBox="0 0 1024 1024" style="enable-background:new 0 0 1024 1024;" xml:space="preserve">
<style type="text/css">
	.st0{fill:#8CA3B4;}
	.st1{fill:#8CA3B4;stroke:#8CA3B4;stroke-width:11;stroke-miterlimit:10;}
	.st2{font-family:'SFProDisplay-Medium';}
	.st3{font-size:200px;}
</style>
<image style="display:none;overflow:visible;" width="180" height="150" xlink:href="CBD2C1A7.jpg"  transform="matrix(5.6667 0 0 5.6667 2 174)">
</image>
<rect x="1" y="886" class="st0" width="1022.4" height="41"/>
<path class="st0" d="M131,890.5v-327c0-11.3,9.2-20.5,20.5-20.5h4c11.3,0,20.5,9.2,20.5,20.5v327c0,11.3-9.2,20.5-20.5,20.5h-4
	C140.2,911,131,901.8,131,890.5z"/>
<path class="st0" d="M346,890.5v-327c0-11.3,9.2-20.5,20.5-20.5h4c11.3,0,20.5,9.2,20.5,20.5v327c0,11.3-9.2,20.5-20.5,20.5h-4
	C355.2,911,346,901.8,346,890.5z"/>
<path class="st0" d="M151.5,543h219c11.3,0,20.5,9.2,20.5,20.5v4c0,11.3-9.2,20.5-20.5,20.5h-219c-11.3,0-20.5-9.2-20.5-20.5v-4
	C131,552.2,140.2,543,151.5,543z"/>
<path class="st0" d="M430,743.5v-385c0-11.3,9.2-20.5,20.5-20.5h4c11.3,0,20.5,9.2,20.5,20.5v385c0,11.3-9.2,20.5-20.5,20.5h-4
	C439.2,764,430,754.8,430,743.5z"/>
<path class="st0" d="M815,743.5v-385c0-11.3,9.2-20.5,20.5-20.5h4c11.3,0,20.5,9.2,20.5,20.5v385c0,11.3-9.2,20.5-20.5,20.5h-4
	C824.2,764,815,754.8,815,743.5z"/>
<path class="st0" d="M450.5,338h385c11.3,0,20.5,9.2,20.5,20.5v4c0,11.3-9.2,20.5-20.5,20.5h-385c-11.3,0-20.5-9.2-20.5-20.5v-4
	C430,347.2,439.2,338,450.5,338z"/>
<path class="st0" d="M454.5,719h385c11.3,0,20.5,9.2,20.5,20.5v4c0,11.3-9.2,20.5-20.5,20.5h-385c-11.3,0-20.5-9.2-20.5-20.5v-4
	C434,728.2,443.2,719,454.5,719z"/>
<path class="st0" d="M939,888.5v-769c0-11.3,9.2-20.5,20.5-20.5h4c11.3,0,20.5,9.2,20.5,20.5v769c0,11.3-9.2,20.5-20.5,20.5h-4
	C948.2,909,939,899.8,939,888.5z"/>
<path class="st0" d="M48,886.5v-769C48,106.2,57.2,97,68.5,97h4c11.3,0,20.5,9.2,20.5,20.5v769c0,11.3-9.2,20.5-20.5,20.5h-4
	C57.2,907,48,897.8,48,886.5z"/>
<path class="st0" d="M68.5,97h895c11.3,0,20.5,9.2,20.5,20.5v4c0,11.3-9.2,20.5-20.5,20.5h-895c-11.3,0-20.5-9.2-20.5-20.5v-4
	C48,106.2,57.2,97,68.5,97z"/>
<path class="st0" d="M73.5,207h883c11.3,0,20.5,9.2,20.5,20.5v4c0,11.3-9.2,20.5-20.5,20.5h-883c-11.3,0-20.5-9.2-20.5-20.5v-4
	C53,216.2,62.2,207,73.5,207z"/>
<text transform="matrix(1 0 0 1 491.7021 620.4473)" class="st1 st2 st3">JW</text>
</svg>
