<?xml version="1.0" encoding="UTF-8" standalone="no" ?>
<!DOCTYPE svg PUBLIC "-//W3C//DTD SVG 1.1//EN" "http://www.w3.org/Graphics/SVG/1.1/DTD/svg11.dtd">
<svg xmlns="http://www.w3.org/2000/svg" xmlns:xlink="http://www.w3.org/1999/xlink" version="1.1" width="1080" height="1080" viewBox="0 0 1080 1080" xml:space="preserve">
<desc>Created with Fabric.js 5.2.4</desc>
<defs>
</defs>
<g transform="matrix(1 0 0 1 540 540)" id="7c7f490f-786b-4d5c-9994-75466238050f"  >
<rect style="stroke: none; stroke-width: 1; stroke-dasharray: none; stroke-linecap: butt; stroke-dashoffset: 0; stroke-linejoin: miter; stroke-miterlimit: 4; fill: rgb(255,255,255); fill-rule: nonzero; opacity: 1; visibility: hidden;" vector-effect="non-scaling-stroke"  x="-540" y="-540" rx="0" ry="0" width="1080" height="1080" />
</g>
<g transform="matrix(1 0 0 1 540 540)" id="001091f2-3f73-45c0-b77e-d99e46ac6069"  >
</g>
<g transform="matrix(1 0 0 1 540 540)"  >
<g style="" vector-effect="non-scaling-stroke"   >
		<g transform="matrix(0.13 0 0 -0.13 0 0)"  >
<path style="stroke: none; stroke-width: 1; stroke-dasharray: none; stroke-linecap: butt; stroke-dashoffset: 0; stroke-linejoin: miter; stroke-miterlimit: 4; fill: rgb(113,134,157); fill-rule: nonzero; opacity: 1;" vector-effect="non-scaling-stroke"  transform=" translate(-2650, -2642.5)" d="M 1072 2643 L 1075 145 L 2650 145 L 4225 145 L 4228 2643 L 4230 5140 L 2650 5140 L 1070 5140 L 1072 2643 z M 4100 3910 L 4100 2800 L 2650 2800 L 1200 2800 L 1200 3910 L 1200 5020 L 2650 5020 L 4100 5020 L 4100 3910 z M 4100 2110 L 4100 1560 L 2650 1560 L 1200 1560 L 1200 2110 L 1200 2660 L 2650 2660 L 4100 2660 L 4100 2110 z M 4108 853 L 4105 265 L 2650 265 L 1195 265 L 1192 853 L 1190 1440 L 2650 1440 L 4110 1440 L 4108 853 z" stroke-linecap="round" />
</g>
		<g transform="matrix(0.13 0 0 -0.13 51.69 -183.89)"  >
<path style="stroke: none; stroke-width: 1; stroke-dasharray: none; stroke-linecap: butt; stroke-dashoffset: 0; stroke-linejoin: miter; stroke-miterlimit: 4; fill: rgb(113,134,157); fill-rule: nonzero; opacity: 1;" vector-effect="non-scaling-stroke"  transform=" translate(-3037.71, -4021.68)" d="M 3512 4551 C 3511 4538 3503 4502 3495 4471 C 3486 4440 3477 4402 3474 4385 C 3471 4369 3462 4330 3454 4300 C 3432 4216 3429 4207 3425 4179 C 3423 4164 3414 4126 3405 4094 C 3396 4061 3387 4022 3384 4005 C 3381 3989 3372 3950 3364 3920 C 3356 3890 3347 3854 3344 3840 C 3337 3809 3330 3801 3329 3823 C 3327 3848 3325 3854 3319 3865 C 3315 3871 3309 3889 3306 3905 C 3294 3960 3291 3974 3245 4135 C 3221 4223 3199 4304 3197 4315 C 3196 4326 3192 4340 3188 4345 C 3185 4351 3178 4373 3174 4395 C 3164 4443 3167 4431 3145 4508 L 3127 4570 L 3031 4570 C 2938 4570 2934 4569 2932 4548 C 2931 4535 2917 4478 2900 4420 C 2869 4315 2866 4301 2854 4245 C 2851 4229 2845 4211 2842 4205 C 2838 4200 2834 4186 2833 4175 C 2831 4164 2816 4108 2800 4050 C 2783 3992 2767 3934 2764 3920 C 2744 3816 2727 3807 2711 3892 C 2704 3927 2690 3993 2679 4040 C 2669 4087 2658 4136 2656 4150 C 2653 4164 2644 4200 2636 4230 C 2628 4260 2619 4299 2616 4315 C 2613 4332 2604 4370 2596 4400 C 2588 4430 2579 4466 2577 4480 C 2574 4494 2569 4520 2565 4538 L 2558 4570 L 2454 4570 C 2336 4570 2340 4574 2364 4483 C 2372 4454 2376 4430 2373 4430 C 2370 4430 2372 4424 2378 4418 C 2383 4411 2391 4392 2394 4375 C 2406 4320 2409 4305 2439 4201 C 2456 4143 2472 4085 2474 4071 C 2477 4057 2493 3998 2510 3940 C 2526 3882 2541 3826 2543 3815 C 2544 3804 2548 3790 2552 3785 C 2555 3779 2562 3757 2566 3735 C 2576 3684 2574 3694 2593 3630 C 2602 3600 2611 3566 2613 3555 C 2615 3544 2620 3527 2623 3518 C 2627 3508 2632 3493 2635 3485 C 2638 3473 2658 3470 2728 3470 L 2817 3470 L 2920 3833 C 2977 4032 3027 4202 3031 4210 C 3038 4223 3040 4222 3041 4208 C 3043 4187 3045 4180 3053 4160 C 3057 4152 3061 4136 3063 4125 C 3065 4114 3070 4098 3073 4090 C 3077 4082 3081 4066 3083 4055 C 3085 4044 3090 4028 3093 4020 C 3097 4012 3101 3996 3103 3985 C 3105 3974 3110 3958 3113 3950 C 3117 3942 3121 3926 3123 3915 C 3125 3904 3130 3888 3133 3880 C 3137 3872 3141 3856 3143 3845 C 3145 3834 3150 3818 3153 3810 C 3157 3802 3161 3786 3163 3775 C 3165 3764 3170 3748 3173 3740 C 3177 3732 3181 3716 3183 3705 C 3185 3694 3190 3678 3193 3670 C 3197 3662 3201 3646 3203 3635 C 3205 3624 3210 3608 3213 3600 C 3216 3592 3226 3559 3235 3528 L 3251 3470 L 3341 3470 C 3429 3470 3431 3470 3442 3498 C 3448 3513 3455 3534 3457 3545 C 3459 3556 3474 3612 3490 3670 C 3521 3775 3524 3789 3536 3845 C 3539 3862 3545 3880 3548 3885 C 3552 3891 3556 3904 3557 3915 C 3559 3926 3574 3982 3590 4040 C 3621 4145 3624 4159 3636 4215 C 3639 4232 3645 4250 3648 4255 C 3652 4261 3656 4274 3657 4285 C 3659 4296 3674 4352 3690 4410 C 3731 4551 3730 4547 3717 4559 C 3710 4564 3662 4570 3609 4572 C 3515 4575 3514 4575 3512 4551 z" stroke-linecap="round" />
</g>
		<g transform="matrix(0.13 0 0 -0.13 -103.64 -182.41)"  >
<path style="stroke: none; stroke-width: 1; stroke-dasharray: none; stroke-linecap: butt; stroke-dashoffset: 0; stroke-linejoin: miter; stroke-miterlimit: 4; fill: rgb(113,134,157); fill-rule: nonzero; opacity: 1;" vector-effect="non-scaling-stroke"  transform=" translate(-1872.73, -4010.57)" d="M 2016 4554 C 2013 4545 2010 4361 2010 4144 C 2010 3710 2008 3697 1951 3662 C 1916 3641 1839 3635 1809 3651 C 1786 3663 1746 3701 1744 3713 C 1743 3717 1741 3723 1740 3728 C 1735 3740 1732 3754 1731 3773 C 1730 3788 1719 3790 1641 3790 C 1531 3790 1515 3775 1534 3690 C 1567 3548 1702 3450 1865 3450 C 1965 3451 2065 3485 2113 3535 C 2143 3566 2197 3639 2199 3653 C 2199 3657 2200 3661 2201 3663 C 2201 3664 2204 3674 2207 3685 C 2211 3696 2215 3893 2217 4123 C 2220 4435 2218 4545 2209 4556 C 2191 4577 2024 4576 2016 4554 z" stroke-linecap="round" />
</g>
</g>
</g>
<g transform="matrix(NaN NaN NaN NaN 0 0)"  >
<g style=""   >
</g>
</g>
</svg>