<?xml version="1.0" encoding="utf-8"?>
<!-- Generator: Adobe Illustrator 26.1.0, SVG Export Plug-In . SVG Version: 6.00 Build 0)  -->
<svg version="1.1" id="Слой_1" xmlns="http://www.w3.org/2000/svg" xmlns:xlink="http://www.w3.org/1999/xlink" x="0px" y="0px"
	 viewBox="0 0 367 567" style="enable-background:new 0 0 367 567;" xml:space="preserve">
<style type="text/css">
	.st0{fill:#FFFFFF;}
</style>
<g transform="matrix(1 0 0 1 540 540)">
	<g vector-effect="non-scaling-stroke">
		<g transform="matrix(0.13 0 0 -0.13 0 0)">
			<path vector-effect="non-scaling-stroke" class="st0" d="M-4150.7,1974.5l2.7-2181.2h1407.1h1407l2.7,2181.2l1.8,2180.3h-1411.5
				h-1411.5L-4150.7,1974.5z M-1445.6,3080.8v-969.2H-2741h-1295.4v969.2V4050H-2741h1295.4V3080.8z M-1445.6,1509.1v-480.2H-2741
				h-1295.4v480.2v480.2H-2741h1295.4C-1445.6,1989.3-1445.6,1509.1-1445.6,1509.1z M-1438.4,411.5l-2.7-513.4H-2741h-1299.9
				l-2.7,513.4l-1.8,512.6h1304.3h1304.3L-1438.4,411.5z"/>
		</g>
		<g transform="matrix(0.13 0 0 -0.13 51.69 -183.89)">
			<path vector-effect="non-scaling-stroke" class="st0" d="M-2359.7,2256.9c-0.9-11.4-8-42.8-15.2-69.9
				c-8-27.1-16.1-60.2-18.8-75.1c-2.7-14-10.7-48-17.9-74.2c-19.7-73.3-22.3-81.2-25.9-105.7c-1.8-13.1-9.8-46.3-17.9-74.2
				c-8-28.8-16.1-62.9-18.8-77.7c-2.7-14-10.7-48-17.9-74.2c-7.1-26.2-15.2-57.6-17.9-69.9c-6.3-27.1-12.5-34.1-13.4-14.8
				c-1.8,21.8-3.6,27.1-8.9,36.7c-3.6,5.2-8.9,21-11.6,34.9c-10.7,48-13.4,60.2-54.5,200.8c-21.4,76.8-41.1,147.6-42.9,157.2
				c-0.9,9.6-4.5,21.8-8,26.2c-2.7,5.2-8.9,24.4-12.5,43.7c-8.9,41.9-6.3,31.4-25.9,98.7l-16.1,54.1h-85.8
				c-83.1,0-86.7-0.9-88.4-19.2c-0.9-11.4-13.4-61.1-28.6-111.8c-27.7-91.7-30.4-103.9-41.1-152.8c-2.7-14-8-29.7-10.7-34.9
				c-3.6-4.4-7.1-16.6-8-26.2c-1.8-9.6-15.2-58.5-29.5-109.1c-15.2-50.6-29.5-101.3-32.2-113.5c-17.9-90.8-33.1-98.7-47.3-24.4
				c-6.3,30.6-18.8,88.2-28.6,129.2c-8.9,41-18.8,83.8-20.5,96c-2.7,12.2-10.7,43.7-17.9,69.9s-15.2,60.2-17.9,74.2
				c-2.7,14.8-10.7,48-17.9,74.2c-7.1,26.2-15.2,57.6-17,69.9c-2.7,12.2-7.1,34.9-10.7,50.6l-6.3,27.9h-92.9
				c-105.4,0-101.8,3.5-80.4-76c7.1-25.3,10.7-46.3,8-46.3s-0.9-5.2,4.5-10.5c4.5-6.1,11.6-22.7,14.3-37.5
				c10.7-48,13.4-61.1,40.2-151.9c15.2-50.6,29.5-101.3,31.3-113.5c2.7-12.2,17-63.7,32.2-114.4c14.3-50.6,27.7-99.5,29.5-109.1
				c0.9-9.6,4.5-21.8,8-26.2c2.7-5.2,8.9-24.4,12.5-43.7c8.9-44.5,7.1-35.8,24.1-91.7c8-26.2,16.1-55.9,17.9-65.5
				c1.8-9.6,6.3-24.4,8.9-32.3c3.6-8.7,8-21.8,10.7-28.8c2.7-10.5,20.5-13.1,83.1-13.1h79.5l92,317
				c50.9,173.8,95.6,322.2,99.2,329.2c6.3,11.4,8,10.5,8.9-1.7c1.8-18.3,3.6-24.4,10.7-41.9c3.6-7,7.1-21,8.9-30.6
				s6.3-23.6,8.9-30.6c3.6-7,7.1-21,8.9-30.6s6.3-23.6,8.9-30.6c3.6-7,7.1-21,8.9-30.6s6.3-23.6,8.9-30.6c3.6-7,7.1-21,8.9-30.6
				s6.3-23.6,8.9-30.6c3.6-7,7.1-21,8.9-30.6s6.3-23.6,8.9-30.6c3.6-7,7.1-21,8.9-30.6s6.3-23.6,8.9-30.6c3.6-7,7.1-21,8.9-30.6
				s6.3-23.6,8.9-30.6c3.6-7,7.1-21,8.9-30.6s6.3-23.6,8.9-30.6c2.7-7,11.6-35.8,19.7-62.9l14.3-50.6h80.4c78.6,0,80.4,0,90.2,24.4
				c5.4,13.1,11.6,31.4,13.4,41s15.2,58.5,29.5,109.1c27.7,91.7,30.4,103.9,41.1,152.8c2.7,14.8,8,30.6,10.7,34.9
				c3.6,5.2,7.1,16.6,8,26.2c1.8,9.6,15.2,58.5,29.5,109.1c27.7,91.7,30.4,103.9,41.1,152.8c2.7,14.8,8,30.6,10.7,34.9
				c3.6,5.2,7.1,16.6,8,26.2c1.8,9.6,15.2,58.5,29.5,109.1c36.6,123.1,35.7,119.6,24.1,130.1c-6.3,4.4-49.1,9.6-96.5,11.4
				C-2357,2277.8-2357.9,2277.8-2359.7,2256.9z"/>
		</g>
		<g transform="matrix(0.13 0 0 -0.13 -103.64 -182.41)">
			<path vector-effect="non-scaling-stroke" class="st0" d="M-2528,2270.6c-2.7-7.9-5.4-168.5-5.4-358c0-379-1.8-390.3-52.7-420.9
				c-31.3-18.3-100.1-23.6-126.9-9.6c-20.5,10.5-56.3,43.7-58.1,54.1c-0.9,3.5-2.7,8.7-3.6,13.1c-4.5,10.5-7.1,22.7-8,39.3
				c-0.9,13.1-10.7,14.8-80.4,14.8c-98.3,0-112.6-13.1-95.6-87.3c29.5-124,150.1-209.6,295.7-209.6c89.3,0.9,178.7,30.6,221.6,74.2
				c26.8,27.1,75,90.8,76.8,103c0,3.5,0.9,7,1.8,8.7c0,0.9,2.7,9.6,5.4,19.2c3.6,9.6,7.1,181.6,8.9,382.5
				c2.7,272.4,0.9,368.5-7.1,378.1C-2371.6,2290.7-2520.8,2289.9-2528,2270.6z"/>
		</g>
	</g>
</g>
</svg>
