<?xml version="1.0" standalone="no"?>
<!DOCTYPE svg PUBLIC "-//W3C//DTD SVG 20010904//EN"
 "http://www.w3.org/TR/2001/REC-SVG-20010904/DTD/svg10.dtd">
<svg version="1.0" xmlns="http://www.w3.org/2000/svg"
 width="540.000000pt" height="540.000000pt" viewBox="0 0 540.000000 540.000000"
 preserveAspectRatio="xMidYMid meet">

<g transform="translate(0.000000,540.000000) scale(0.100000,-0.100000)"
fill="#000000" stroke="none">
<path d="M1072 2643 l3 -2498 1575 0 1575 0 3 2498 2 2497 -1580 0 -1580 0 2
-2497z m3028 1267 l0 -1110 -1450 0 -1450 0 0 1110 0 1110 1450 0 1450 0 0
-1110z m0 -1800 l0 -550 -1450 0 -1450 0 0 550 0 550 1450 0 1450 0 0 -550z
m8 -1257 l-3 -588 -1455 0 -1455 0 -3 588 -2 587 1460 0 1460 0 -2 -587z"/>
<path d="M3512 4551 c-1 -13 -9 -49 -17 -80 -9 -31 -18 -69 -21 -86 -3 -16
-12 -55 -20 -85 -22 -84 -25 -93 -29 -121 -2 -15 -11 -53 -20 -85 -9 -33 -18
-72 -21 -89 -3 -16 -12 -55 -20 -85 -8 -30 -17 -66 -20 -80 -7 -31 -14 -39
-15 -17 -2 25 -4 31 -10 42 -4 6 -10 24 -13 40 -12 55 -15 69 -61 230 -24 88
-46 169 -48 180 -1 11 -5 25 -9 30 -3 6 -10 28 -14 50 -10 48 -7 36 -29 113
l-18 62 -96 0 c-93 0 -97 -1 -99 -22 -1 -13 -15 -70 -32 -128 -31 -105 -34
-119 -46 -175 -3 -16 -9 -34 -12 -40 -4 -5 -8 -19 -9 -30 -2 -11 -17 -67 -33
-125 -17 -58 -33 -116 -36 -130 -20 -104 -37 -113 -53 -28 -7 35 -21 101 -32
148 -10 47 -21 96 -23 110 -3 14 -12 50 -20 80 -8 30 -17 69 -20 85 -3 17 -12
55 -20 85 -8 30 -17 66 -19 80 -3 14 -8 40 -12 58 l-7 32 -104 0 c-118 0 -114
4 -90 -87 8 -29 12 -53 9 -53 -3 0 -1 -6 5 -12 5 -7 13 -26 16 -43 12 -55 15
-70 45 -174 17 -58 33 -116 35 -130 3 -14 19 -73 36 -131 16 -58 31 -114 33
-125 1 -11 5 -25 9 -30 3 -6 10 -28 14 -50 10 -51 8 -41 27 -105 9 -30 18 -64
20 -75 2 -11 7 -28 10 -37 4 -10 9 -25 12 -33 3 -12 23 -15 93 -15 l89 0 103
363 c57 199 107 369 111 377 7 13 9 12 10 -2 2 -21 4 -28 12 -48 4 -8 8 -24
10 -35 2 -11 7 -27 10 -35 4 -8 8 -24 10 -35 2 -11 7 -27 10 -35 4 -8 8 -24
10 -35 2 -11 7 -27 10 -35 4 -8 8 -24 10 -35 2 -11 7 -27 10 -35 4 -8 8 -24
10 -35 2 -11 7 -27 10 -35 4 -8 8 -24 10 -35 2 -11 7 -27 10 -35 4 -8 8 -24
10 -35 2 -11 7 -27 10 -35 4 -8 8 -24 10 -35 2 -11 7 -27 10 -35 3 -8 13 -41
22 -72 l16 -58 90 0 c88 0 90 0 101 28 6 15 13 36 15 47 2 11 17 67 33 125 31
105 34 119 46 175 3 17 9 35 12 40 4 6 8 19 9 30 2 11 17 67 33 125 31 105 34
119 46 175 3 17 9 35 12 40 4 6 8 19 9 30 2 11 17 67 33 125 41 141 40 137 27
149 -7 5 -55 11 -108 13 -94 3 -95 3 -97 -21z"/>
<path d="M2016 4554 c-3 -9 -6 -193 -6 -410 0 -434 -2 -447 -59 -482 -35 -21
-112 -27 -142 -11 -23 12 -63 50 -65 62 -1 4 -3 10 -4 15 -5 12 -8 26 -9 45
-1 15 -12 17 -90 17 -110 0 -126 -15 -107 -100 33 -142 168 -240 331 -240 100
1 200 35 248 85 30 31 84 104 86 118 0 4 1 8 2 10 0 1 3 11 6 22 4 11 8 208
10 438 3 312 1 422 -8 433 -18 21 -185 20 -193 -2z"/>
</g>
</svg>
