<?xml version="1.0" encoding="utf-8"?>
<!-- Generator: Adobe Illustrator 24.1.2, SVG Export Plug-In . SVG Version: 6.00 Build 0)  -->
<svg version="1.1" id="Слой_1" xmlns="http://www.w3.org/2000/svg" xmlns:xlink="http://www.w3.org/1999/xlink" x="0px" y="0px"
	 viewBox="0 0 1080 1080" style="enable-background:new 0 0 1080 1080;" xml:space="preserve">
<style type="text/css">
	.st0{display:none;fill:#FFFFFF;}
	.st1{fill:#71869D;}
</style>
<desc>Created with Fabric.js 5.2.4</desc>
<g id="_x37_c7f490f-786b-4d5c-9994-75466238050f" transform="matrix(1 0 0 1 540 540)">
	<rect x="-540" y="-540" vector-effect="non-scaling-stroke" class="st0" width="1080" height="1080"/>
</g>
<g id="_x30_01091f2-3f73-45c0-b77e-d99e46ac6069" transform="matrix(1 0 0 1 540 540)">
</g>
<g transform="matrix(1 0 0 1 540 540)">
	<g vector-effect="non-scaling-stroke">
		<g transform="matrix(0.13 0 0 -0.13 0 0)">
			<path vector-effect="non-scaling-stroke" class="st1" d="M-2813.8,0.8l5.3-4154.7H0h2808.5l5.3,4154.7l3.6,4153H0h-2817.4
				L-2813.8,0.8z M2585.6,2108.1V262H0h-2585.6v1846.2v1846.2H0h2585.6V2108.1z M2585.6-885.7v-914.8H0h-2585.6v914.8V29.1H0h2585.6
				V-885.7z M2599.8-2976.3l-5.3-978H0h-2594.5l-5.3,978l-3.6,976.3H0h2603.4L2599.8-2976.3z"/>
		</g>
		<g transform="matrix(0.13 0 0 -0.13 51.69 -183.89)">
			<path vector-effect="non-scaling-stroke" class="st1" d="M1157.1,1818.5c-1.8-21.6-16-81.5-30.3-133.1
				c-16-51.6-32.1-114.8-37.4-143c-5.3-26.6-21.4-91.5-35.7-141.4c-39.2-139.7-44.6-154.7-51.7-201.2
				c-3.6-24.9-19.6-88.1-35.7-141.4c-16-54.9-32.1-119.8-37.4-148c-5.3-26.6-21.4-91.5-35.7-141.4S862.9,659.2,857.6,636
				c-12.5-51.6-25-64.9-26.7-28.3c-3.6,41.6-7.1,51.6-17.8,69.9c-7.1,10-17.8,39.9-23.2,66.5c-21.4,91.5-26.7,114.8-108.8,382.5
				c-42.8,146.4-82,281.1-85.6,299.4c-1.8,18.3-8.9,41.6-16,49.9c-5.3,10-17.8,46.6-25,83.2c-17.8,79.8-12.5,59.9-51.7,187.9
				l-32.1,103.1H299.4c-165.8,0-173-1.7-176.5-36.6c-1.8-21.6-26.7-116.4-57.1-212.9c-55.3-174.6-60.6-197.9-82-291.1
				c-5.3-26.6-16-56.5-21.4-66.5c-7.1-8.3-14.3-31.6-16-49.9c-3.6-18.3-30.3-111.4-58.8-207.9c-30.3-96.5-58.8-192.9-64.2-216.2
				c-35.7-173-66-187.9-94.5-46.6c-12.5,58.2-37.4,168-57.1,246.2c-17.8,78.2-37.4,159.7-41,183c-5.3,23.3-21.4,83.2-35.7,133.1
				c-14.3,49.9-30.3,114.8-35.7,141.4c-5.3,28.3-21.4,91.5-35.7,141.4c-14.3,49.9-30.3,109.8-33.9,133.1
				c-5.3,23.3-14.3,66.5-21.4,96.5l-12.5,53.2h-185.4c-210.4,0-203.3,6.7-160.5-144.7c14.3-48.2,21.4-88.1,16-88.1
				c-5.3,0-1.8-10,8.9-20c8.9-11.6,23.2-43.2,28.5-71.5c21.4-91.5,26.7-116.4,80.2-289.4c30.3-96.5,58.8-192.9,62.4-216.2
				c5.3-23.3,33.9-121.4,64.2-217.9c28.5-96.5,55.3-189.6,58.8-207.9c1.8-18.3,8.9-41.6,16-49.9c5.3-10,17.8-46.6,25-83.2
				c17.8-84.8,14.3-68.2,48.1-174.6c16-49.9,32.1-106.4,35.7-124.7c3.6-18.3,12.5-46.6,17.8-61.5c7.1-16.6,16-41.6,21.4-54.9
				c5.3-20,41-24.9,165.8-24.9h158.7l183.7,603.7c101.6,331,190.8,613.7,197.9,627c12.5,21.6,16,20,17.8-3.3
				c3.6-34.9,7.1-46.6,21.4-79.8c7.1-13.3,14.3-39.9,17.8-58.2c3.6-18.3,12.5-44.9,17.8-58.2c7.1-13.3,14.3-39.9,17.8-58.2
				s12.5-44.9,17.8-58.2c7.1-13.3,14.3-39.9,17.8-58.2s12.5-44.9,17.8-58.2c7.1-13.3,14.3-39.9,17.8-58.2s12.5-44.9,17.8-58.2
				c7.1-13.3,14.3-39.9,17.8-58.2c3.6-18.3,12.5-44.9,17.8-58.2c7.1-13.3,14.3-39.9,17.8-58.2c3.6-18.3,12.5-44.9,17.8-58.2
				c7.1-13.3,14.3-39.9,17.8-58.2c3.6-18.3,12.5-44.9,17.8-58.2c7.1-13.3,14.3-39.9,17.8-58.2c3.6-18.3,12.5-44.9,17.8-58.2
				s23.2-68.2,39.2-119.8l28.5-96.5h160.5c156.9,0,160.5,0,180.1,46.6c10.7,24.9,23.2,59.9,26.7,78.2
				c3.6,18.3,30.3,111.4,58.8,207.9c55.3,174.6,60.6,197.9,82,291.1c5.3,28.3,16,58.2,21.4,66.5c7.1,10,14.3,31.6,16,49.9
				c3.6,18.3,30.3,111.4,58.8,207.9c55.3,174.6,60.6,197.9,82,291.1c5.3,28.3,16,58.2,21.4,66.5c7.1,10,14.3,31.6,16,49.9
				c3.6,18.3,30.3,111.4,58.8,207.9c73.1,234.5,71.3,227.9,48.1,247.8c-12.5,8.3-98.1,18.3-192.6,21.6
				C1162.5,1858.4,1160.7,1858.4,1157.1,1818.5z"/>
		</g>
		<g transform="matrix(0.13 0 0 -0.13 -103.64 -182.41)">
			<path vector-effect="non-scaling-stroke" class="st1" d="M-368.9,1834.4c-5.3-15-10.7-321-10.7-681.9
				c0-721.8-3.6-743.5-105.2-801.7c-62.4-34.9-199.7-44.9-253.2-18.3c-41,20-112.3,83.2-115.9,103.1c-1.8,6.7-5.3,16.6-7.1,24.9
				c-8.9,20-14.3,43.2-16,74.8c-1.8,24.9-21.4,28.3-160.5,28.3c-196.1,0-224.7-24.9-190.8-166.3C-1169.5,161.2-928.8-1.8-638.1-1.8
				c178.3,1.7,356.6,58.2,442.2,141.4c53.5,51.6,149.8,173,153.4,196.3c0,6.7,1.8,13.3,3.6,16.6c0,1.7,5.3,18.3,10.7,36.6
				c7.1,18.3,14.3,345.9,17.8,728.5c5.3,518.9,1.8,701.9-14.3,720.2C-56.8,1872.7-354.6,1871-368.9,1834.4z"/>
		</g>
	</g>
</g>
<g transform="matrix(NaN NaN NaN NaN 0 0)">
</g>
</svg>
