<?xml version="1.0" encoding="utf-8"?>
<!-- Generator: Adobe Illustrator 24.1.2, SVG Export Plug-In . SVG Version: 6.00 Build 0)  -->
<svg version="1.1" id="Layer_1" xmlns="http://www.w3.org/2000/svg" xmlns:xlink="http://www.w3.org/1999/xlink" x="0px" y="0px"
	 viewBox="0 0 800 800" style="enable-background:new 0 0 800 800;" xml:space="preserve">
<style type="text/css">
	.st0{fill:#71869D;}
</style>
<g id="SVGRepo_bgCarrier">
</g>
<g id="SVGRepo_tracerCarrier">
</g>
<g transform="matrix(1 0 0 1 540 540)">
	<g vector-effect="non-scaling-stroke">
		<g transform="matrix(0.13 0 0 -0.13 0 0)">
			<path vector-effect="non-scaling-stroke" class="st0" d="M-3297.5,1077.5l4.2-3077.5h2216.4h2216.4l4.2,3077.5l2.8,3076.3
				h-2223.4h-2223.4L-3297.5,1077.5z M963.5,2638.5V1271h-2040.5h-2040.5v1367.5V4006h2040.5H963.5V2638.5z M963.5,420.9v-677.6
				h-2040.5h-2040.5v677.6v677.6h2040.5H963.5V420.9z M974.8-1127.7l-4.2-724.4h-2047.5h-2047.5l-4.2,724.4l-2.8,723.2h2054.5H977.6
				L974.8-1127.7z"/>
		</g>
		<g transform="matrix(0.13 0 0 -0.13 51.69 -183.89)">
			<path vector-effect="non-scaling-stroke" class="st0" d="M-247.6,2057.2c-1.4-16-12.7-60.4-23.9-98.6
				c-12.7-38.2-25.3-85-29.6-106c-4.2-19.7-16.9-67.8-28.1-104.7c-31-103.5-35.2-114.6-40.8-149.1c-2.8-18.5-15.5-65.3-28.1-104.7
				c-12.7-40.7-25.3-88.7-29.6-109.6c-4.2-19.7-16.9-67.8-28.1-104.7s-23.9-81.3-28.1-98.6c-9.9-38.2-19.7-48-21.1-20.9
				c-2.8,30.8-5.6,38.2-14.1,51.7c-5.6,7.4-14.1,29.6-18.3,49.3c-16.9,67.8-21.1,85-85.8,283.4c-33.8,108.4-64.7,208.2-67.5,221.8
				c-1.4,13.6-7,30.8-12.7,37c-4.2,7.4-14.1,34.5-19.7,61.6c-14.1,59.1-9.9,44.4-40.8,139.2l-25.3,76.4h-135.1
				c-130.9,0-136.5-1.2-139.3-27.1c-1.4-16-21.1-86.2-45-157.7c-43.6-129.4-47.8-146.6-64.7-215.6c-4.2-19.7-12.7-41.9-16.9-49.3
				c-5.6-6.2-11.3-23.4-12.7-37c-2.8-13.6-23.9-82.5-46.4-154c-23.9-71.5-46.4-142.9-50.7-160.2c-28.1-128.1-52.1-139.2-74.6-34.5
				c-9.9,43.1-29.6,124.4-45,182.3c-14.1,57.9-29.6,118.3-32.4,135.5c-4.2,17.2-16.9,61.6-28.1,98.6c-11.3,37-23.9,85-28.1,104.7
				c-4.2,20.9-16.9,67.8-28.1,104.7c-11.3,37-23.9,81.3-26.7,98.6c-4.2,17.2-11.3,49.3-16.9,71.5l-9.9,39.4h-146.4
				c-166.1,0-160.4,4.9-126.7-107.2c11.3-35.7,16.9-65.3,12.7-65.3s-1.4-7.4,7-14.8c7-8.6,18.3-32,22.5-53
				c16.9-67.8,21.1-86.2,63.3-214.4c23.9-71.5,46.4-142.9,49.3-160.2c4.2-17.2,26.7-89.9,50.7-161.4c22.5-71.5,43.6-140.4,46.4-154
				c1.4-13.6,7-30.8,12.7-37c4.2-7.4,14.1-34.5,19.7-61.6c14.1-62.8,11.3-50.5,38-129.4c12.7-37,25.3-78.8,28.1-92.4
				c2.8-13.6,9.9-34.5,14.1-45.6c5.6-12.3,12.7-30.8,16.9-40.7c4.2-14.8,32.4-18.5,130.9-18.5h125.2l144.9,447.2
				c80.2,245.2,150.6,454.6,156.2,464.5c9.9,16,12.7,14.8,14.1-2.5c2.8-25.9,5.6-34.5,16.9-59.1c5.6-9.9,11.3-29.6,14.1-43.1
				c2.8-13.6,9.9-33.3,14.1-43.1c5.6-9.9,11.3-29.6,14.1-43.1s9.9-33.3,14.1-43.1c5.6-9.9,11.3-29.6,14.1-43.1s9.9-33.3,14.1-43.1
				c5.6-9.9,11.3-29.6,14.1-43.1c2.8-13.6,9.9-33.3,14.1-43.1c5.6-9.9,11.3-29.6,14.1-43.1c2.8-13.6,9.9-33.3,14.1-43.1
				c5.6-9.9,11.3-29.6,14.1-43.1s9.9-33.3,14.1-43.1c5.6-9.9,11.3-29.6,14.1-43.1c2.8-13.6,9.9-33.3,14.1-43.1
				c5.6-9.9,11.3-29.6,14.1-43.1s9.9-33.3,14.1-43.1c4.2-9.9,18.3-50.5,31-88.7l22.5-71.5h126.6c123.8,0,126.7,0,142.1,34.5
				c8.4,18.5,18.3,44.4,21.1,57.9c2.8,13.6,23.9,82.5,46.4,154c43.6,129.4,47.8,146.6,64.7,215.6c4.2,20.9,12.7,43.1,16.9,49.3
				c5.6,7.4,11.3,23.4,12.7,37c2.8,13.6,23.9,82.5,46.4,154c43.6,129.4,47.8,146.6,64.7,215.6c4.2,20.9,12.7,43.1,16.9,49.3
				c5.6,7.4,11.3,23.4,12.7,37c2.8,13.6,23.9,82.5,46.4,154c57.7,173.7,56.3,168.8,38,183.6c-9.9,6.2-77.4,13.6-152,16
				C-243.4,2086.8-244.8,2086.8-247.6,2057.2z"/>
		</g>
		<g transform="matrix(0.13 0 0 -0.13 -103.64 -182.41)">
			<path vector-effect="non-scaling-stroke" class="st0" d="M-1200,2072c-4.2-11.1-8.4-237.8-8.4-505.1c0-534.7-2.8-550.7-83-593.8
				c-49.3-25.9-157.6-33.3-199.8-13.6c-32.4,14.8-88.7,61.6-91.5,76.4c-1.4,4.9-4.2,12.3-5.6,18.5c-7,14.8-11.3,32-12.7,55.4
				c-1.4,18.5-16.9,20.9-126.7,20.9c-154.8,0-177.3-18.5-150.6-123.2c46.4-174.9,236.4-295.7,465.8-295.7
				c140.7,1.2,281.4,43.1,349,104.7c42.2,38.2,118.2,128.1,121,145.4c0,4.9,1.4,9.9,2.8,12.3c0,1.2,4.2,13.6,8.4,27.1
				c5.6,13.6,11.3,256.3,14.1,539.6c4.2,384.4,1.4,519.9-11.3,533.5C-953.7,2100.3-1188.7,2099.1-1200,2072z"/>
		</g>
	</g>
</g>
</svg>
